# Made in Blockbench 5.1.1
mtllib antenna_top.mtl

o Cube_Cube.001
v 0.125 0.5 0.125
v 0.125 0 0.125
v 0.125 0 0.875
v 0.875 0.5 0.125
v 0.875 0 0.125
v 0.875 0.5 0.875
v 0.875 0 0.875
v 0.125 0.5 0.875
v 0 0.25 0.25
v 0 1.25 0.25
v 0 1.25 0
v 0.25 0.25 0
v 0.25 1.25 0
v 0.25 1.25 0.25
v 0 0.25 0
v 0.25 0.25 0.25
v 0.625 0.625 0.625
v 0.625 0.5 0.625
v 0.625 0.5 0.375
v 0.375 0.625 0.375
v 0.375 0.5 0.375
v 0.375 0.5 0.625
v 0.375 0.625 0.625
v 0.625 0.625 0.375
v 0 0.25 1
v 0 1.25 1
v 0 1.25 0.75
v 0.25 0.25 0.75
v 0.25 1.25 0.75
v 0.25 1.25 1
v 0 0.25 0.75
v 0.25 0.25 1
v 0.75 0.25 0.25
v 0.75 1.25 0.25
v 0.75 1.25 0
v 1 0.25 0
v 1 1.25 0
v 1 1.25 0.25
v 0.75 0.25 0
v 1 0.25 0.25
v 0.75 0.25 1
v 0.75 1.25 1
v 0.75 1.25 0.75
v 1 0.25 0.75
v 1 1.25 0.75
v 1 1.25 1
v 0.75 0.25 0.75
v 1 0.25 1
vt 0.203125 1
vt 0.203125 0.875
vt 0.390625 0.875
vt 0.203125 0.859375
vt 0.203125 0.734375
vt 0.390625 0.734375
vt 0.203125 0.71875
vt 0.203125 0.59375
vt 0.390625 0.59375
vt 0 0.59375
vt 0 0.46875
vt 0.1875 0.46875
vt 0 0.8125
vt 0.1875 0.8125
vt 0.1875 1
vt 0.1875 0.796875
vt 0 0.796875
vt 0 0.609375
vt 0.46875 0.75
vt 0.46875 1
vt 0.40625 1
vt 0.46875 0.484375
vt 0.46875 0.734375
vt 0.40625 0.734375
vt 0.265625 0.328125
vt 0.265625 0.578125
vt 0.203125 0.578125
vt 0.34375 0.328125
vt 0.34375 0.578125
vt 0.28125 0.578125
vt 0.734375 0.46875
vt 0.671875 0.46875
vt 0.671875 0.40625
vt 0.71875 0.6875
vt 0.71875 0.65625
vt 0.78125 0.65625
vt 0.71875 0.640625
vt 0.71875 0.609375
vt 0.78125 0.609375
vt 0.71875 0.59375
vt 0.71875 0.5625
vt 0.78125 0.5625
vt 0.71875 0.546875
vt 0.71875 0.515625
vt 0.78125 0.515625
vt 0.671875 0.390625
vt 0.671875 0.328125
vt 0.734375 0.328125
vt 0.21875 0.3125
vt 0.15625 0.3125
vt 0.15625 0.25
vt 0.546875 0.75
vt 0.546875 1
vt 0.484375 1
vt 0.546875 0.484375
vt 0.546875 0.734375
vt 0.484375 0.734375
vt 0.421875 0.21875
vt 0.421875 0.46875
vt 0.359375 0.46875
vt 0.5 0.21875
vt 0.5 0.46875
vt 0.4375 0.46875
vt 0.296875 0.3125
vt 0.234375 0.3125
vt 0.234375 0.25
vt 0.671875 0.3125
vt 0.671875 0.25
vt 0.734375 0.25
vt 0.578125 0.21875
vt 0.578125 0.46875
vt 0.515625 0.46875
vt 0.0625 0.203125
vt 0.0625 0.453125
vt 0 0.453125
vt 0.140625 0.203125
vt 0.140625 0.453125
vt 0.078125 0.453125
vt 0.625 0.75
vt 0.625 1
vt 0.5625 1
vt 0.78125 1
vt 0.71875 1
vt 0.71875 0.9375
vt 0.71875 0.921875
vt 0.71875 0.859375
vt 0.78125 0.859375
vt 0.625 0.484375
vt 0.625 0.734375
vt 0.5625 0.734375
vt 0.65625 0.21875
vt 0.65625 0.46875
vt 0.59375 0.46875
vt 0.703125 0.75
vt 0.703125 1
vt 0.640625 1
vt 0.703125 0.484375
vt 0.703125 0.734375
vt 0.640625 0.734375
vt 0.78125 0.84375
vt 0.71875 0.84375
vt 0.71875 0.78125
vt 0.71875 0.765625
vt 0.71875 0.703125
vt 0.78125 0.703125
vt 0.390625 1
vt 0.203125 1
vt 0.390625 0.875
vt 0.390625 0.859375
vt 0.203125 0.859375
vt 0.390625 0.734375
vt 0.390625 0.71875
vt 0.203125 0.71875
vt 0.390625 0.59375
vt 0.1875 0.59375
vt 0 0.59375
vt 0.1875 0.46875
vt 0 1
vt 0 0.8125
vt 0.1875 1
vt 0.1875 0.609375
vt 0.1875 0.796875
vt 0 0.609375
vt 0.40625 0.75
vt 0.46875 0.75
vt 0.40625 1
vt 0.40625 0.484375
vt 0.46875 0.484375
vt 0.40625 0.734375
vt 0.203125 0.328125
vt 0.265625 0.328125
vt 0.203125 0.578125
vt 0.28125 0.328125
vt 0.34375 0.328125
vt 0.28125 0.578125
vt 0.734375 0.40625
vt 0.734375 0.46875
vt 0.671875 0.40625
vt 0.78125 0.6875
vt 0.71875 0.6875
vt 0.78125 0.65625
vt 0.78125 0.640625
vt 0.71875 0.640625
vt 0.78125 0.609375
vt 0.78125 0.59375
vt 0.71875 0.59375
vt 0.78125 0.5625
vt 0.78125 0.546875
vt 0.71875 0.546875
vt 0.78125 0.515625
vt 0.734375 0.390625
vt 0.671875 0.390625
vt 0.734375 0.328125
vt 0.21875 0.25
vt 0.21875 0.3125
vt 0.15625 0.25
vt 0.484375 0.75
vt 0.546875 0.75
vt 0.484375 1
vt 0.484375 0.484375
vt 0.546875 0.484375
vt 0.484375 0.734375
vt 0.359375 0.21875
vt 0.421875 0.21875
vt 0.359375 0.46875
vt 0.4375 0.21875
vt 0.5 0.21875
vt 0.4375 0.46875
vt 0.296875 0.25
vt 0.296875 0.3125
vt 0.234375 0.25
vt 0.734375 0.3125
vt 0.671875 0.3125
vt 0.734375 0.25
vt 0.515625 0.21875
vt 0.578125 0.21875
vt 0.515625 0.46875
vt 0 0.203125
vt 0.0625 0.203125
vt 0 0.453125
vt 0.078125 0.203125
vt 0.140625 0.203125
vt 0.078125 0.453125
vt 0.5625 0.75
vt 0.625 0.75
vt 0.5625 1
vt 0.78125 0.9375
vt 0.78125 1
vt 0.71875 0.9375
vt 0.78125 0.921875
vt 0.71875 0.921875
vt 0.78125 0.859375
vt 0.5625 0.484375
vt 0.625 0.484375
vt 0.5625 0.734375
vt 0.59375 0.21875
vt 0.65625 0.21875
vt 0.59375 0.46875
vt 0.640625 0.75
vt 0.703125 0.75
vt 0.640625 1
vt 0.640625 0.484375
vt 0.703125 0.484375
vt 0.640625 0.734375
vt 0.78125 0.78125
vt 0.78125 0.84375
vt 0.71875 0.78125
vt 0.78125 0.765625
vt 0.71875 0.765625
vt 0.78125 0.703125
vn -1 0 0
vn 0 0 -1
vn 1 0 0
vn 0 0 1
vn 0 -1 0
vn 0 1 0
vn -1 0 0
vn 1 0 0
vn 0 0 -1
vn 0 0 1
vn 0 1 0
vn 1 0 0
vn -1 0 0
vn 0 0 1
vn 0 0 -1
vn 0 -1 0
vn 0 1 0
vn -1 0 0
vn 1 0 0
vn 0 0 -1
vn 0 0 1
vn 0 1 0
vn 0 -1 0
vn -1 0 0
vn 1 0 0
vn 0 0 -1
vn 0 0 1
vn 0 1 0
vn 0 -1 0
vn -1 0 0
vn 1 0 0
vn 0 0 -1
vn 0 0 1
vn 0 1 0
vn 0 -1 0
vn -1 0 0
vn 0 0 -1
vn 1 0 0
vn 0 0 1
vn 0 -1 0
vn 0 1 0
vn -1 0 0
vn 1 0 0
vn 0 0 -1
vn 0 0 1
vn 0 1 0
vn 1 0 0
vn -1 0 0
vn 0 0 1
vn 0 0 -1
vn 0 -1 0
vn 0 1 0
vn -1 0 0
vn 1 0 0
vn 0 0 -1
vn 0 0 1
vn 0 1 0
vn 0 -1 0
vn -1 0 0
vn 1 0 0
vn 0 0 -1
vn 0 0 1
vn 0 1 0
vn 0 -1 0
vn -1 0 0
vn 1 0 0
vn 0 0 -1
vn 0 0 1
vn 0 1 0
vn 0 -1 0
usemtl m_60615bbe-ad38-2330-ed0a-4a96c8478d6f
f 1/1/1 2/2/1 3/3/1
f 4/4/2 5/5/2 2/6/2
f 6/7/3 7/8/3 5/9/3
f 8/10/4 3/11/4 7/12/4
f 2/13/5 5/14/5 7/15/5
f 4/16/6 1/17/6 8/18/6
f 9/19/7 10/20/7 11/21/7
f 12/22/8 13/23/8 14/24/8
f 15/25/9 11/26/9 13/27/9
f 16/28/10 14/29/10 10/30/10
f 13/31/11 11/32/11 10/33/11
f 17/34/12 18/35/12 19/36/12
f 20/37/13 21/38/13 22/39/13
f 23/40/14 22/41/14 18/42/14
f 24/43/15 19/44/15 21/45/15
f 9/46/16 15/47/16 12/48/16
f 24/49/17 20/50/17 23/51/17
f 25/52/18 26/53/18 27/54/18
f 28/55/19 29/56/19 30/57/19
f 31/58/20 27/59/20 29/60/20
f 32/61/21 30/62/21 26/63/21
f 29/64/22 27/65/22 26/66/22
f 25/67/23 31/68/23 28/69/23
f 33/70/24 34/71/24 35/72/24
f 36/73/25 37/74/25 38/75/25
f 39/76/26 35/77/26 37/78/26
f 40/79/27 38/80/27 34/81/27
f 37/82/28 35/83/28 34/84/28
f 33/85/29 39/86/29 36/87/29
f 41/88/30 42/89/30 43/90/30
f 44/91/31 45/92/31 46/93/31
f 47/94/32 43/95/32 45/96/32
f 48/97/33 46/98/33 42/99/33
f 45/100/34 43/101/34 42/102/34
f 41/103/35 47/104/35 44/105/35
f 8/106/36 1/107/36 3/108/36
f 1/109/37 4/110/37 2/111/37
f 4/112/38 6/113/38 5/114/38
f 6/115/39 8/116/39 7/117/39
f 3/118/40 2/119/40 7/120/40
f 6/121/41 4/122/41 8/123/41
f 15/124/42 9/125/42 11/126/42
f 16/127/43 12/128/43 14/129/43
f 12/130/44 15/131/44 13/132/44
f 9/133/45 16/134/45 10/135/45
f 14/136/46 13/137/46 10/138/46
f 24/139/47 17/140/47 19/141/47
f 23/142/48 20/143/48 22/144/48
f 17/145/49 23/146/49 18/147/49
f 20/148/50 24/149/50 21/150/50
f 16/151/51 9/152/51 12/153/51
f 17/154/52 24/155/52 23/156/52
f 31/157/53 25/158/53 27/159/53
f 32/160/54 28/161/54 30/162/54
f 28/163/55 31/164/55 29/165/55
f 25/166/56 32/167/56 26/168/56
f 30/169/57 29/170/57 26/171/57
f 32/172/58 25/173/58 28/174/58
f 39/175/59 33/176/59 35/177/59
f 40/178/60 36/179/60 38/180/60
f 36/181/61 39/182/61 37/183/61
f 33/184/62 40/185/62 34/186/62
f 38/187/63 37/188/63 34/189/63
f 40/190/64 33/191/64 36/192/64
f 47/193/65 41/194/65 43/195/65
f 48/196/66 44/197/66 46/198/66
f 44/199/67 47/200/67 45/201/67
f 41/202/68 48/203/68 42/204/68
f 46/205/69 45/206/69 42/207/69
f 48/208/70 41/209/70 44/210/70