# Made in Blockbench 5.1.3
mtllib burner_press.mtl

o Cube.001_Cube.002
v 0.25 2.0056849999999997 0.75
v 0.25 2.380685 0.75
v 0.25 2.380685 0.25
v 0.75 2.0056849999999997 0.75
v 0.75 2.380685 0.75
v 0.25 2.0056849999999997 0.25
v 0.75 2.380685 0.25
v 0.125 2.0056849999999997 0.125
v 0.75 2.0056849999999997 0.25
v 0.875 2.0056849999999997 0.875
v 0.125 2.0056849999999997 0.875
v 0.125 1.880685 0.875
v 0.875 1.880685 0.125
v 0.875 2.0056849999999997 0.125
v 0.875 1.880685 0.875
v 0.125 1.880685 0.125
v 0.875 0 0
v 1 0 0
v 1 0 0.125
v 0.875 0 0.875
v 1 0 0.875
v 1 0 1
v 0 0 0.875
v 0.125 0 0.875
v 0.125 0 1
v 0 0 0
v 0.125 0 0
v 0.125 0 0.125
v 0.125 1 0.125
v 0.125 1 0.875
v 0.875 1 0.875
v 1 1 0.875
v 1 1 0.125
v 0.875 1 0.125
v 0.875 1 0
v 0.125 1 0
v 0 1 0.125
v 0.125 1 1
v 0.875 2 0.875
v 0.125 2 0.875
v 0.125 2 0.125
v 1 2 0.125
v 1 2 0.875
v 0.875 1 1
v 0.125 0.875 1
v 1 0.875 0.875
v 0.875 0.875 0
v 0 1 0.875
v 0 0.875 0.125
v 0.125 0.875 0.875
v 0.125 0 0.875
v 0.875 0 0.875
v 0.125 0.875 0.125
v 0.125 0 0.125
v 0.125 0.875 0
v 0.875 0 0.125
v 0 0 0.125
v 0.875 0.875 0.875
v 0.875 0.875 0.125
v 1 0.875 0.125
v 0 0.875 0.875
v 0.875 0.875 1
v 0.25 2.5 0.75
v 0.25 2.5 0.25
v 0 2.5 0.125
v 0.75 2.5 0.75
v 0.125 2.5 1
v 0.75 2.5 0.25
v 1 2.5 0.875
v 0.875 2.5 0
v 0.125 2 0
v 0.875 2 0
v 0.875 2 0.125
v 0 2 0.875
v 0.875 2 1
v 0.125 2 1
v 0 2.5 0.875
v 0 2.5 1
v 1 1 0
v 1 0.875 0
v 0.875 2.5 1
v 0.125 2.5 0
v 1 2.5 0.125
v 0.75 3 0.75
v 0.25 3 0.75
v 0.25 3 0.25
v 0.75 3 0.25
v 1 1 1
v 1 0.875 1
v 0 1 1
v 0 0.875 1
v 0 0.875 0
v 0 1 0
v 0 2 0.125
v 0.875 0 1
v 0 2 1
v 1 2 1
v 1 2.5 1
v 1 2 0
v 1 2.5 0
v 0 2.5 0
v 0 2 0
v 0.875 0 0.125
v 0 0 1
vt 0.09375 0.5546875
vt 0.09375 0.6015625
vt 0.03125 0.6015625
vt 0.09375 0.5
vt 0.09375 0.546875
vt 0.03125 0.546875
vt 0.5625 0.8203125
vt 0.5625 0.8671875
vt 0.5 0.8671875
vt 0.09375 0.859375
vt 0.09375 0.921875
vt 0.03125 0.921875
vt 0.234375 0.546875
vt 0.25 0.53125
vt 0.3125 0.53125
vt 0.3125 0.53125
vt 0.3125 0.46875
vt 0.328125 0.453125
vt 0.3125 0.46875
vt 0.25 0.46875
vt 0.234375 0.453125
vt 0.25 0.46875
vt 0.25 0.53125
vt 0.234375 0.546875
vt 0.6640625 0.8671875
vt 0.6640625 0.8828125
vt 0.5703125 0.8828125
vt 0.2265625 0.4140625
vt 0.2265625 0.4296875
vt 0.1328125 0.4296875
vt 0.6640625 0.84375
vt 0.6640625 0.859375
vt 0.5703125 0.859375
vt 0.6640625 0.8203125
vt 0.6640625 0.8359375
vt 0.5703125 0.8359375
vt 0.5625 0.765625
vt 0.5625 0.8125
vt 0.5 0.8125
vt 0.3359375 0.515625
vt 0.3359375 0.421875
vt 0.4296875 0.421875
vt 0.03125 0.5546875
vt 0.09375 0.5546875
vt 0.03125 0.6015625
vt 0.03125 0.5
vt 0.09375 0.5
vt 0.03125 0.546875
vt 0.5 0.8203125
vt 0.5625 0.8203125
vt 0.5 0.8671875
vt 0.03125 0.859375
vt 0.09375 0.859375
vt 0.03125 0.921875
vt 0.328125 0.546875
vt 0.234375 0.546875
vt 0.3125 0.53125
vt 0.328125 0.546875
vt 0.3125 0.53125
vt 0.328125 0.453125
vt 0.328125 0.453125
vt 0.3125 0.46875
vt 0.234375 0.453125
vt 0.234375 0.453125
vt 0.25 0.46875
vt 0.234375 0.546875
vt 0.5703125 0.8671875
vt 0.6640625 0.8671875
vt 0.5703125 0.8828125
vt 0.1328125 0.4140625
vt 0.2265625 0.4140625
vt 0.1328125 0.4296875
vt 0.5703125 0.84375
vt 0.6640625 0.84375
vt 0.5703125 0.859375
vt 0.5703125 0.8203125
vt 0.6640625 0.8203125
vt 0.5703125 0.8359375
vt 0.5 0.765625
vt 0.5625 0.765625
vt 0.5 0.8125
vt 0.4296875 0.515625
vt 0.3359375 0.515625
vt 0.4296875 0.421875
vt 0.03125 0.8359375
vt 0.046875 0.8359375
vt 0.046875 0.8515625
vt 0.0546875 0.8359375
vt 0.0703125 0.8359375
vt 0.0703125 0.8515625
vt 0.078125 0.8359375
vt 0.09375 0.8359375
vt 0.09375 0.8515625
vt 0.1640625 0.8359375
vt 0.1796875 0.8359375
vt 0.1796875 0.8515625
vt 0.1484375 0.6640625
vt 0.1484375 0.5703125
vt 0.2421875 0.5703125
vt 0.2578125 0.5703125
vt 0.2578125 0.6640625
vt 0.2421875 0.6640625
vt 0.2421875 0.6796875
vt 0.1484375 0.6796875
vt 0.1484375 0.6640625
vt 0.1484375 0.5703125
vt 0.1484375 0.6640625
vt 0.1328125 0.6640625
vt 0.2421875 0.5703125
vt 0.1484375 0.5703125
vt 0.1484375 0.5546875
vt 0.375 0.6640625
vt 0.28125 0.6640625
vt 0.28125 0.5703125
vt 0.390625 0.5703125
vt 0.390625 0.6640625
vt 0.375 0.6640625
vt 0.109375 0.8125
vt 0.015625 0.8125
vt 0.015625 0.796875
vt 0.2421875 0.8125
vt 0.1484375 0.8125
vt 0.1484375 0.796875
vt 0.375 0.8125
vt 0.28125 0.8125
vt 0.28125 0.796875
vt 0.109375 0.4921875
vt 0.015625 0.4921875
vt 0.015625 0.4765625
vt 0.5625 0.7578125
vt 0.546875 0.7578125
vt 0.546875 0.6484375
vt 0.3984375 0.8671875
vt 0.3984375 0.7578125
vt 0.4921875 0.7578125
vt 0.3984375 0.75
vt 0.3984375 0.640625
vt 0.4921875 0.640625
vt 0.5703125 1
vt 0.5546875 1
vt 0.5546875 0.890625
vt 0.3984375 0.5234375
vt 0.4921875 0.5234375
vt 0.4921875 0.6328125
vt 0.4375 0.515625
vt 0.4375 0.421875
vt 0.53125 0.421875
vt 0.234375 0.3359375
vt 0.25 0.3359375
vt 0.25 0.4453125
vt 0.5 0.625
vt 0.5 0.53125
vt 0.515625 0.53125
vt 0.6640625 0.8125
vt 0.5703125 0.8125
vt 0.5703125 0.796875
vt 0.5859375 0.6953125
vt 0.5859375 0.7890625
vt 0.5703125 0.7890625
vt 0.5703125 0.671875
vt 0.6640625 0.671875
vt 0.6640625 0.6875
vt 0.4296875 0.90625
vt 0.4296875 0.96875
vt 0.3984375 0.984375
vt 0.4921875 0.90625
vt 0.4296875 0.90625
vt 0.4140625 0.875
vt 0.4921875 0.96875
vt 0.4921875 0.90625
vt 0.5234375 0.890625
vt 0.4296875 0.96875
vt 0.4921875 0.96875
vt 0.5078125 1
vt 0.2734375 0.4453125
vt 0.2578125 0.4453125
vt 0.2578125 0.3359375
vt 0.1328125 0.4375
vt 0.2265625 0.4375
vt 0.2265625 0.546875
vt 0.28125 0.5546875
vt 0.375 0.5546875
vt 0.375 0.5703125
vt 0.28125 0.5703125
vt 0.28125 0.6640625
vt 0.265625 0.6640625
vt 0.375 0.6796875
vt 0.28125 0.6796875
vt 0.28125 0.6640625
vt 0.3984375 0.890625
vt 0.3984375 0.875
vt 0.4140625 0.875
vt 0.28125 0.8125
vt 0.265625 0.8125
vt 0.265625 0.796875
vt 0.5234375 0.890625
vt 0.4921875 0.90625
vt 0.5078125 0.875
vt 0.3984375 0.984375
vt 0.4296875 0.96875
vt 0.4140625 1
vt 0.5078125 1
vt 0.4921875 0.96875
vt 0.5234375 0.984375
vt 0.2265625 0.859375
vt 0.2265625 0.921875
vt 0.1640625 0.921875
vt 0.03125 0.78125
vt 0.03125 0.71875
vt 0.09375 0.71875
vt 0.2265625 0.71875
vt 0.2265625 0.78125
vt 0.1640625 0.78125
vt 0.359375 0.859375
vt 0.359375 0.921875
vt 0.296875 0.921875
vt 0.359375 0.71875
vt 0.359375 0.78125
vt 0.296875 0.78125
vt 0.109375 0.6171875
vt 0.109375 0.6796875
vt 0.015625 0.6796875
vt 0.015625 1
vt 0.015625 0.9375
vt 0.109375 0.9375
vt 0.1484375 1
vt 0.1484375 0.9375
vt 0.2421875 0.9375
vt 0.28125 1
vt 0.28125 0.9375
vt 0.375 0.9375
vt 0.2578125 0.796875
vt 0.2578125 0.8125
vt 0.2421875 0.8125
vt 0.1484375 0.8125
vt 0.1328125 0.8125
vt 0.1328125 0.796875
vt 0.125 0.796875
vt 0.125 0.8125
vt 0.109375 0.8125
vt 0.015625 0.8125
vt 0 0.8125
vt 0 0.796875
vt 0.125 0.4765625
vt 0.125 0.4921875
vt 0.109375 0.4921875
vt 0.390625 0.796875
vt 0.390625 0.8125
vt 0.375 0.8125
vt 0.515625 0.7578125
vt 0.5 0.7578125
vt 0.5 0.6328125
vt 0.5390625 0.7578125
vt 0.5234375 0.7578125
vt 0.5234375 0.6328125
vt 0.015625 0.4921875
vt 0 0.4921875
vt 0 0.4765625
vt 0.546875 1
vt 0.53125 1
vt 0.53125 0.875
vt 0.046875 0.3359375
vt 0.046875 0.4609375
vt 0.03125 0.4609375
vt 0.0703125 0.4609375
vt 0.0546875 0.4609375
vt 0.0546875 0.3359375
vt 0.09375 0.3359375
vt 0.09375 0.4609375
vt 0.078125 0.4609375
vt 0.5546875 0.5
vt 0.5546875 0.625
vt 0.5390625 0.625
vt 0.5546875 0.3671875
vt 0.5546875 0.4921875
vt 0.5390625 0.4921875
vt 0.125 0.796875
vt 0.109375 0.796875
vt 0.109375 0.6875
vt 0.1484375 0.6875
vt 0.1484375 0.796875
vt 0.1328125 0.796875
vt 0.2578125 0.796875
vt 0.2421875 0.796875
vt 0.2421875 0.6875
vt 0.28125 0.6875
vt 0.28125 0.796875
vt 0.265625 0.796875
vt 0.390625 0.796875
vt 0.375 0.796875
vt 0.375 0.6875
vt 0.015625 0.3671875
vt 0.015625 0.4765625
vt 0 0.4765625
vt 0.125 0.4765625
vt 0.109375 0.4765625
vt 0.109375 0.3671875
vt 0.015625 0.6875
vt 0.015625 0.796875
vt 0 0.796875
vt 0.109375 0.6796875
vt 0.109375 0.6171875
vt 0.125 0.6171875
vt 0.015625 1
vt 0 1
vt 0 0.9375
vt 0.1328125 0.9375
vt 0.1484375 0.9375
vt 0.1484375 1
vt 0.125 0.9375
vt 0.125 1
vt 0.109375 1
vt 0.265625 0.9375
vt 0.28125 0.9375
vt 0.28125 1
vt 0.2578125 0.9375
vt 0.2578125 1
vt 0.2421875 1
vt 0.015625 0.6171875
vt 0.015625 0.6796875
vt 0 0.6796875
vt 0.375 1
vt 0.375 0.9375
vt 0.390625 0.9375
vt 0.375 0.8125
vt 0.390625 0.8125
vt 0.390625 0.9375
vt 0 0.6171875
vt 0 0.4921875
vt 0.015625 0.4921875
vt 0.109375 0.4921875
vt 0.125 0.4921875
vt 0.125 0.6171875
vt 0 0.9375
vt 0 0.8125
vt 0.015625 0.8125
vt 0.109375 0.8125
vt 0.125 0.8125
vt 0.125 0.9375
vt 0.1328125 0.9375
vt 0.1328125 0.8125
vt 0.1484375 0.8125
vt 0.2421875 0.8125
vt 0.2578125 0.8125
vt 0.2578125 0.9375
vt 0.265625 0.9375
vt 0.265625 0.8125
vt 0.28125 0.8125
vt 0.296875 0.4453125
vt 0.28125 0.4453125
vt 0.28125 0.3359375
vt 0.3203125 0.4453125
vt 0.3046875 0.4453125
vt 0.3046875 0.3359375
vt 0.578125 0.53125
vt 0.578125 0.640625
vt 0.5625 0.640625
vt 0.578125 0.4140625
vt 0.578125 0.5234375
vt 0.5625 0.5234375
vt 0.03125 0.8515625
vt 0.03125 0.8359375
vt 0.046875 0.8515625
vt 0.0546875 0.8515625
vt 0.0546875 0.8359375
vt 0.0703125 0.8515625
vt 0.078125 0.8515625
vt 0.078125 0.8359375
vt 0.09375 0.8515625
vt 0.1640625 0.8515625
vt 0.1640625 0.8359375
vt 0.1796875 0.8515625
vt 0.2421875 0.6640625
vt 0.1484375 0.6640625
vt 0.2421875 0.5703125
vt 0.2421875 0.5703125
vt 0.2578125 0.5703125
vt 0.2421875 0.6640625
vt 0.2421875 0.6640625
vt 0.2421875 0.6796875
vt 0.1484375 0.6640625
vt 0.1328125 0.5703125
vt 0.1484375 0.5703125
vt 0.1328125 0.6640625
vt 0.2421875 0.5546875
vt 0.2421875 0.5703125
vt 0.1484375 0.5546875
vt 0.375 0.5703125
vt 0.375 0.6640625
vt 0.28125 0.5703125
vt 0.375 0.5703125
vt 0.390625 0.5703125
vt 0.375 0.6640625
vt 0.109375 0.796875
vt 0.109375 0.8125
vt 0.015625 0.796875
vt 0.2421875 0.796875
vt 0.2421875 0.8125
vt 0.1484375 0.796875
vt 0.375 0.796875
vt 0.375 0.8125
vt 0.28125 0.796875
vt 0.109375 0.4765625
vt 0.109375 0.4921875
vt 0.015625 0.4765625
vt 0.5625 0.6484375
vt 0.5625 0.7578125
vt 0.546875 0.6484375
vt 0.4921875 0.8671875
vt 0.3984375 0.8671875
vt 0.4921875 0.7578125
vt 0.4921875 0.75
vt 0.3984375 0.75
vt 0.4921875 0.640625
vt 0.5703125 0.890625
vt 0.5703125 1
vt 0.5546875 0.890625
vt 0.3984375 0.6328125
vt 0.3984375 0.5234375
vt 0.4921875 0.6328125
vt 0.53125 0.515625
vt 0.4375 0.515625
vt 0.53125 0.421875
vt 0.234375 0.4453125
vt 0.234375 0.3359375
vt 0.25 0.4453125
vt 0.515625 0.625
vt 0.5 0.625
vt 0.515625 0.53125
vt 0.6640625 0.796875
vt 0.6640625 0.8125
vt 0.5703125 0.796875
vt 0.5703125 0.6953125
vt 0.5859375 0.6953125
vt 0.5703125 0.7890625
vt 0.5703125 0.6875
vt 0.5703125 0.671875
vt 0.6640625 0.6875
vt 0.3984375 0.890625
vt 0.4296875 0.90625
vt 0.3984375 0.984375
vt 0.5078125 0.875
vt 0.4921875 0.90625
vt 0.4140625 0.875
vt 0.5234375 0.984375
vt 0.4921875 0.96875
vt 0.5234375 0.890625
vt 0.4140625 1
vt 0.4296875 0.96875
vt 0.5078125 1
vt 0.2734375 0.3359375
vt 0.2734375 0.4453125
vt 0.2578125 0.3359375
vt 0.1328125 0.546875
vt 0.1328125 0.4375
vt 0.2265625 0.546875
vt 0.28125 0.5703125
vt 0.28125 0.5546875
vt 0.375 0.5703125
vt 0.265625 0.5703125
vt 0.28125 0.5703125
vt 0.265625 0.6640625
vt 0.375 0.6640625
vt 0.375 0.6796875
vt 0.28125 0.6640625
vt 0.4296875 0.90625
vt 0.3984375 0.890625
vt 0.4140625 0.875
vt 0.28125 0.796875
vt 0.28125 0.8125
vt 0.265625 0.796875
vt 0.5234375 0.875
vt 0.5234375 0.890625
vt 0.5078125 0.875
vt 0.3984375 1
vt 0.3984375 0.984375
vt 0.4140625 1
vt 0.5234375 1
vt 0.5078125 1
vt 0.5234375 0.984375
vt 0.1640625 0.859375
vt 0.2265625 0.859375
vt 0.1640625 0.921875
vt 0.09375 0.78125
vt 0.03125 0.78125
vt 0.09375 0.71875
vt 0.1640625 0.71875
vt 0.2265625 0.71875
vt 0.1640625 0.78125
vt 0.296875 0.859375
vt 0.359375 0.859375
vt 0.296875 0.921875
vt 0.296875 0.71875
vt 0.359375 0.71875
vt 0.296875 0.78125
vt 0.015625 0.6171875
vt 0.109375 0.6171875
vt 0.015625 0.6796875
vt 0.109375 1
vt 0.015625 1
vt 0.109375 0.9375
vt 0.2421875 1
vt 0.1484375 1
vt 0.2421875 0.9375
vt 0.375 1
vt 0.28125 1
vt 0.375 0.9375
vt 0.2421875 0.796875
vt 0.2578125 0.796875
vt 0.2421875 0.8125
vt 0.1484375 0.796875
vt 0.1484375 0.8125
vt 0.1328125 0.796875
vt 0.109375 0.796875
vt 0.125 0.796875
vt 0.109375 0.8125
vt 0.015625 0.796875
vt 0.015625 0.8125
vt 0 0.796875
vt 0.109375 0.4765625
vt 0.125 0.4765625
vt 0.109375 0.4921875
vt 0.375 0.796875
vt 0.390625 0.796875
vt 0.375 0.8125
vt 0.515625 0.6328125
vt 0.515625 0.7578125
vt 0.5 0.6328125
vt 0.5390625 0.6328125
vt 0.5390625 0.7578125
vt 0.5234375 0.6328125
vt 0.015625 0.4765625
vt 0.015625 0.4921875
vt 0 0.4765625
vt 0.546875 0.875
vt 0.546875 1
vt 0.53125 0.875
vt 0.03125 0.3359375
vt 0.046875 0.3359375
vt 0.03125 0.4609375
vt 0.0703125 0.3359375
vt 0.0703125 0.4609375
vt 0.0546875 0.3359375
vt 0.078125 0.3359375
vt 0.09375 0.3359375
vt 0.078125 0.4609375
vt 0.5390625 0.5
vt 0.5546875 0.5
vt 0.5390625 0.625
vt 0.5390625 0.3671875
vt 0.5546875 0.3671875
vt 0.5390625 0.4921875
vt 0.125 0.6875
vt 0.125 0.796875
vt 0.109375 0.6875
vt 0.1328125 0.6875
vt 0.1484375 0.6875
vt 0.1328125 0.796875
vt 0.2578125 0.6875
vt 0.2578125 0.796875
vt 0.2421875 0.6875
vt 0.265625 0.6875
vt 0.28125 0.6875
vt 0.265625 0.796875
vt 0.390625 0.6875
vt 0.390625 0.796875
vt 0.375 0.6875
vt 0 0.3671875
vt 0.015625 0.3671875
vt 0 0.4765625
vt 0.125 0.3671875
vt 0.125 0.4765625
vt 0.109375 0.3671875
vt 0 0.6875
vt 0.015625 0.6875
vt 0 0.796875
vt 0.125 0.6796875
vt 0.109375 0.6796875
vt 0.125 0.6171875
vt 0.015625 0.9375
vt 0.015625 1
vt 0 0.9375
vt 0.1328125 1
vt 0.1328125 0.9375
vt 0.1484375 1
vt 0.109375 0.9375
vt 0.125 0.9375
vt 0.109375 1
vt 0.265625 1
vt 0.265625 0.9375
vt 0.28125 1
vt 0.2421875 0.9375
vt 0.2578125 0.9375
vt 0.2421875 1
vt 0 0.6171875
vt 0.015625 0.6171875
vt 0 0.6796875
vt 0.390625 1
vt 0.375 1
vt 0.390625 0.9375
vt 0.375 0.9375
vt 0.375 0.8125
vt 0.390625 0.9375
vt 0.015625 0.6171875
vt 0 0.6171875
vt 0.015625 0.4921875
vt 0.109375 0.6171875
vt 0.109375 0.4921875
vt 0.125 0.6171875
vt 0.015625 0.9375
vt 0 0.9375
vt 0.015625 0.8125
vt 0.109375 0.9375
vt 0.109375 0.8125
vt 0.125 0.9375
vt 0.1484375 0.9375
vt 0.1328125 0.9375
vt 0.1484375 0.8125
vt 0.2421875 0.9375
vt 0.2421875 0.8125
vt 0.2578125 0.9375
vt 0.28125 0.9375
vt 0.265625 0.9375
vt 0.28125 0.8125
vt 0.296875 0.3359375
vt 0.296875 0.4453125
vt 0.28125 0.3359375
vt 0.3203125 0.3359375
vt 0.3203125 0.4453125
vt 0.3046875 0.3359375
vt 0.5625 0.53125
vt 0.578125 0.53125
vt 0.5625 0.640625
vt 0.5625 0.4140625
vt 0.578125 0.4140625
vt 0.5625 0.5234375
vn -1 0 0
vn 0 0 1
vn 0 0 -1
vn 0 1 0
vn 0 1 0
vn 0 1 0
vn 0 1 0
vn 0 1 0
vn -1 0 0
vn 1 0 0
vn 0 0 1
vn 0 0 -1
vn 1 0 0
vn 0 -1 0
vn -1 0 0
vn 0 0 1
vn 0 0 -1
vn 0 1 0
vn 0 1 0
vn 0 1 0
vn 0 1 0
vn 0 1 0
vn -1 0 0
vn 1 0 0
vn 0 0 1
vn 0 0 -1
vn 1 0 0
vn 0 -1 0
vn 0 -1 0
vn 0 -1 0
vn 0 -1 0
vn 0 -1 0
vn 0 1 0
vn 0 1 0
vn 0 1 0
vn 0 1 0
vn 0 1 0
vn 0 -1 0
vn 0 -1 0
vn 0 0 1
vn 1 0 0
vn 0 0 -1
vn -1 0 0
vn 1 0 0
vn 0 0 1
vn -1 0 0
vn 1 0 0
vn 0 0 -1
vn 0 -1 0
vn 0 0 1
vn 0 -1 0
vn 0 -1 0
vn 0 -1 0
vn 0 -1 0
vn 0 1 0
vn 0 1 0
vn 0 1 0
vn 0 1 0
vn 0 0 -1
vn 1 0 0
vn 0 -1 0
vn 0 -1 0
vn 0 -1 0
vn 0 1 0
vn 0 0 -1
vn 0 1 0
vn 0 1 0
vn 0 1 0
vn 0 0 1
vn 0 1 0
vn -1 0 0
vn 1 0 0
vn 0 0 -1
vn -1 0 0
vn 0 0 1
vn 1 0 0
vn 0 0 -1
vn 1 0 0
vn 1 0 0
vn 0 0 1
vn 0 0 1
vn -1 0 0
vn 0 0 -1
vn 1 0 0
vn 0 0 1
vn -1 0 0
vn -1 0 0
vn 0 0 -1
vn 0 0 1
vn -1 0 0
vn 1 0 0
vn 0 0 -1
vn 0 0 1
vn 1 0 0
vn 1 0 0
vn 0 0 -1
vn 0 0 -1
vn -1 0 0
vn -1 0 0
vn 0 0 1
vn -1 0 0
vn 0 0 1
vn 1 0 0
vn 0 0 1
vn 0 0 -1
vn 1 0 0
vn -1 0 0
vn 0 0 -1
vn 0 0 -1
vn -1 0 0
vn -1 0 0
vn 0 0 1
vn 0 0 1
vn 1 0 0
vn 1 0 0
vn 0 0 -1
vn 0 0 -1
vn -1 0 0
vn -1 0 0
vn 0 0 1
vn 0 -1 0
vn 0 -1 0
vn 0 -1 0
vn 0 -1 0
vn 0 1 0
vn 0 1 0
vn 0 1 0
vn 0 1 0
vn 0 1 0
vn 0 -1 0
vn 0 -1 0
vn 0 0 1
vn 1 0 0
vn 0 0 -1
vn -1 0 0
vn 1 0 0
vn 0 0 1
vn -1 0 0
vn 1 0 0
vn 0 0 -1
vn 0 -1 0
vn 0 0 1
vn 0 -1 0
vn 0 -1 0
vn 0 -1 0
vn 0 -1 0
vn 0 1 0
vn 0 1 0
vn 0 1 0
vn 0 1 0
vn 0 0 -1
vn 1 0 0
vn 0 -1 0
vn 0 -1 0
vn 0 -1 0
vn 0 1 0
vn 0 0 -1
vn 0 1 0
vn 0 1 0
vn 0 1 0
vn 0 0 1
vn 0 1 0
vn -1 0 0
vn 1 0 0
vn 0 0 -1
vn -1 0 0
vn 0 0 1
vn 1 0 0
vn 0 0 -1
vn 1 0 0
vn 1 0 0
vn 0 0 1
vn 0 0 1
vn -1 0 0
vn 0 0 -1
vn 1 0 0
vn 0 0 1
vn -1 0 0
vn -1 0 0
vn 0 0 -1
vn 0 0 1
vn -1 0 0
vn 1 0 0
vn 0 0 -1
vn 0 0 1
vn 1 0 0
vn 1 0 0
vn 0 0 -1
vn 0 0 -1
vn -1 0 0
vn -1 0 0
vn 0 0 1
vn -1 0 0
vn 0 0 1
vn 1 0 0
vn 0 0 1
vn 0 0 -1
vn 1 0 0
vn -1 0 0
vn 0 0 -1
vn 0 0 -1
vn -1 0 0
vn -1 0 0
vn 0 0 1
vn 0 0 1
vn 1 0 0
vn 1 0 0
vn 0 0 -1
vn 0 0 -1
vn -1 0 0
vn -1 0 0
vn 0 0 1
usemtl m_98daa5fe-6b8a-7260-f8f8-e10f4d29119c
f 1/1/1 2/2/1 3/3/1
f 4/4/2 5/5/2 2/6/2
f 6/7/3 3/8/3 7/9/3
f 5/10/4 7/11/4 3/12/4
f 8/13/5 6/14/5 9/15/5
f 9/16/6 4/17/6 10/18/6
f 4/19/7 1/20/7 11/21/7
f 1/22/8 6/23/8 8/24/8
f 12/25/9 11/26/9 8/27/9
f 13/28/10 14/29/10 10/30/10
f 15/31/11 10/32/11 11/33/11
f 16/34/12 8/35/12 14/36/12
f 9/37/13 7/38/13 5/39/13
f 12/40/14 16/41/14 13/42/14
f 6/43/15 1/44/15 3/45/15
f 1/46/16 4/47/16 2/48/16
f 9/49/17 6/50/17 7/51/17
f 2/52/18 5/53/18 3/54/18
f 14/55/19 8/56/19 9/57/19
f 14/58/20 9/59/20 10/60/20
f 10/61/21 4/62/21 11/63/21
f 11/64/22 1/65/22 8/66/22
f 16/67/23 12/68/23 8/69/23
f 15/70/24 13/71/24 10/72/24
f 12/73/25 15/74/25 11/75/25
f 13/76/26 16/77/26 14/78/26
f 4/79/27 9/80/27 5/81/27
f 15/82/28 12/83/28 13/84/28
f 17/85/29 18/86/29 19/87/29
f 20/88/30 21/89/30 22/90/30
f 23/91/31 24/92/31 25/93/31
f 26/94/32 27/95/32 28/96/32
f 29/97/33 30/98/33 31/99/33
f 32/100/34 33/101/34 34/102/34
f 35/103/35 36/104/35 29/105/35
f 30/106/36 29/107/36 37/108/36
f 31/109/37 30/110/37 38/111/37
f 39/112/38 40/113/38 41/114/38
f 42/115/39 43/116/39 39/117/39
f 44/118/40 38/119/40 45/120/40
f 33/121/41 32/122/41 46/123/41
f 36/124/42 35/125/42 47/126/42
f 48/127/43 37/128/43 49/129/43
f 50/130/44 45/131/44 25/132/44
f 50/133/45 51/134/45 52/135/45
f 53/136/46 54/137/46 51/138/46
f 55/139/47 53/140/47 28/141/47
f 56/142/48 54/143/48 53/144/48
f 51/145/49 54/146/49 56/147/49
f 57/148/50 28/149/50 53/150/50
f 58/151/51 59/152/51 60/153/51
f 59/154/52 53/155/52 55/156/52
f 53/157/53 50/158/53 61/159/53
f 50/160/54 58/161/54 62/162/54
f 63/163/55 64/164/55 65/165/55
f 66/166/56 63/167/56 67/168/56
f 68/169/57 66/170/57 69/171/57
f 64/172/58 68/173/58 70/174/58
f 61/175/59 50/176/59 24/177/59
f 52/178/60 56/179/60 59/180/60
f 71/181/61 72/182/61 73/183/61
f 41/184/62 40/185/62 74/186/62
f 75/187/63 76/188/63 40/189/63
f 77/190/64 78/191/64 67/192/64
f 35/193/65 79/194/65 80/195/65
f 69/196/66 66/197/66 81/198/66
f 65/199/67 64/200/67 82/201/67
f 70/202/68 68/203/68 83/204/68
f 66/205/69 84/206/69 85/207/69
f 86/208/70 85/209/70 84/210/70
f 63/211/71 85/212/71 86/213/71
f 68/214/72 87/215/72 84/216/72
f 64/217/73 86/218/73 87/219/73
f 74/220/74 77/221/74 65/222/74
f 67/223/75 76/224/75 75/225/75
f 69/226/76 43/227/76 42/228/76
f 70/229/77 72/230/77 71/231/77
f 80/232/78 79/233/78 33/234/78
f 32/235/79 88/236/79 89/237/79
f 89/238/80 88/239/80 44/240/80
f 38/241/81 90/242/81 91/243/81
f 91/244/82 90/245/82 48/246/82
f 92/247/83 93/248/83 36/249/83
f 71/250/84 41/251/84 29/252/84
f 41/253/85 94/254/85 37/255/85
f 37/256/86 93/257/86 92/258/86
f 75/259/87 39/260/87 31/261/87
f 31/262/88 39/263/88 43/264/88
f 42/265/89 73/266/89 34/267/89
f 34/268/90 73/269/90 72/270/90
f 30/271/91 40/272/91 76/273/91
f 48/274/92 74/275/92 40/276/92
f 89/277/93 62/278/93 95/279/93
f 21/280/94 46/281/94 89/282/94
f 80/283/95 60/284/95 19/285/95
f 17/286/96 47/287/96 80/288/96
f 92/289/97 55/290/97 27/291/97
f 57/292/98 49/293/98 92/294/98
f 91/295/99 61/296/99 23/297/99
f 25/298/100 45/299/100 91/300/100
f 77/301/101 74/302/101 96/303/101
f 67/304/102 78/305/102 96/306/102
f 97/307/103 43/308/103 69/309/103
f 97/310/104 98/311/104 81/312/104
f 99/313/105 72/314/105 70/315/105
f 99/316/106 100/317/106 83/318/106
f 94/319/107 65/320/107 101/321/107
f 82/322/108 71/323/108 102/324/108
f 36/325/109 93/326/109 102/327/109
f 102/328/110 93/329/110 37/330/110
f 48/331/111 90/332/111 96/333/111
f 96/334/112 90/335/112 38/336/112
f 44/337/113 88/338/113 97/339/113
f 97/340/114 88/341/114 32/342/114
f 33/343/115 79/344/115 99/345/115
f 99/346/116 79/347/116 35/348/116
f 58/349/117 46/350/117 21/351/117
f 62/352/118 58/353/118 20/354/118
f 103/355/119 59/356/119 47/357/119
f 19/358/120 60/359/120 59/360/120
f 103/361/121 17/362/121 19/363/121
f 95/364/122 20/365/122 22/366/122
f 104/367/123 23/368/123 25/369/123
f 57/370/124 26/371/124 28/372/124
f 34/373/125 29/374/125 31/375/125
f 31/376/126 32/377/126 34/378/126
f 34/379/127 35/380/127 29/381/127
f 48/382/128 30/383/128 37/384/128
f 44/385/129 31/386/129 38/387/129
f 73/388/130 39/389/130 41/390/130
f 73/391/131 42/392/131 39/393/131
f 62/394/132 44/395/132 45/396/132
f 60/397/133 33/398/133 46/399/133
f 55/400/134 36/401/134 47/402/134
f 61/403/135 48/404/135 49/405/135
f 24/406/136 50/407/136 25/408/136
f 58/409/137 50/410/137 52/411/137
f 50/412/138 53/413/138 51/414/138
f 27/415/139 55/416/139 28/417/139
f 59/418/140 56/419/140 53/420/140
f 52/421/141 51/422/141 56/423/141
f 49/424/142 57/425/142 53/426/142
f 46/427/143 58/428/143 60/429/143
f 47/430/144 59/431/144 55/432/144
f 49/433/145 53/434/145 61/435/145
f 45/436/146 50/437/146 62/438/146
f 77/439/147 63/440/147 65/441/147
f 81/442/148 66/443/148 67/444/148
f 83/445/149 68/446/149 69/447/149
f 82/448/150 64/449/150 70/450/150
f 23/451/151 61/452/151 24/453/151
f 58/454/152 52/455/152 59/456/152
f 41/457/153 71/458/153 73/459/153
f 94/460/154 41/461/154 74/462/154
f 39/463/155 75/464/155 40/465/155
f 63/466/156 77/467/156 67/468/156
f 47/469/157 35/470/157 80/471/157
f 98/472/158 69/473/158 81/474/158
f 101/475/159 65/476/159 82/477/159
f 100/478/160 70/479/160 83/480/160
f 63/481/161 66/482/161 85/483/161
f 87/484/162 86/485/162 84/486/162
f 64/487/163 63/488/163 86/489/163
f 66/490/164 68/491/164 84/492/164
f 68/493/165 64/494/165 87/495/165
f 94/496/166 74/497/166 65/498/166
f 81/499/167 67/500/167 75/501/167
f 83/502/168 69/503/168 42/504/168
f 82/505/169 70/506/169 71/507/169
f 60/508/170 80/509/170 33/510/170
f 46/511/171 32/512/171 89/513/171
f 62/514/172 89/515/172 44/516/172
f 45/517/173 38/518/173 91/519/173
f 61/520/174 91/521/174 48/522/174
f 55/523/175 92/524/175 36/525/175
f 36/526/176 71/527/176 29/528/176
f 29/529/177 41/530/177 37/531/177
f 49/532/178 37/533/178 92/534/178
f 44/535/179 75/536/179 31/537/179
f 32/538/180 31/539/180 43/540/180
f 33/541/181 42/542/181 34/543/181
f 35/544/182 34/545/182 72/546/182
f 38/547/183 30/548/183 76/549/183
f 30/550/184 48/551/184 40/552/184
f 22/553/185 89/554/185 95/555/185
f 22/556/186 21/557/186 89/558/186
f 18/559/187 80/560/187 19/561/187
f 18/562/188 17/563/188 80/564/188
f 26/565/189 92/566/189 27/567/189
f 26/568/190 57/569/190 92/570/190
f 104/571/191 91/572/191 23/573/191
f 104/574/192 25/575/192 91/576/192
f 78/577/193 77/578/193 96/579/193
f 76/580/194 67/581/194 96/582/194
f 98/583/195 97/584/195 69/585/195
f 75/586/196 97/587/196 81/588/196
f 100/589/197 99/590/197 70/591/197
f 42/592/198 99/593/198 83/594/198
f 102/595/199 94/596/199 101/597/199
f 101/598/200 82/599/200 102/600/200
f 71/601/201 36/602/201 102/603/201
f 94/604/202 102/605/202 37/606/202
f 74/607/203 48/608/203 96/609/203
f 76/610/204 96/611/204 38/612/204
f 75/613/205 44/614/205 97/615/205
f 43/616/206 97/617/206 32/618/206
f 42/619/207 33/620/207 99/621/207
f 72/622/208 99/623/208 35/624/208
f 20/625/209 58/626/209 21/627/209
f 95/628/210 62/629/210 20/630/210
f 17/631/211 103/632/211 47/633/211
f 103/634/212 19/635/212 59/636/212