# Made in Blockbench 5.0.7
mtllib centrifuge.mtl

o cylinder
v 0.5 0.875 0.49861913746615216
v 0.5 3.875 0.49861913746615216
v 0.5801461650180977 0.875 0.875
v 0.5801461650180977 3.875 0.875
v 0.7265804950176127 0.875 0.8099203295551061
v 0.7265804950176127 3.875 0.8099203295551061
v 0.8338369990094062 0.875 0.6910138549154856
v 0.8338369990094062 3.875 0.6910138549154856
v 0.8833700530585484 0.875 0.5388405857777386
v 0.8833700530585484 3.875 0.5388405857777386
v 0.8666149421262734 0.875 0.3797126628265317
v 0.8666149421262734 3.875 0.3797126628265317
v 0.7864687771081758 0.875 0.24114474957192494
v 0.7864687771081758 3.875 0.24114474957192494
v 0.6567895580409358 0.875 0.1470964970656118
v 0.6567895580409358 3.875 0.1470964970656118
v 0.5 0.875 0.11382970256748542
v 0.5 3.875 0.11382970256748542
v 0.3432104419590643 0.875 0.14709649706561173
v 0.3432104419590643 3.875 0.14709649706561173
v 0.21353122289182436 0.875 0.24114474957192472
v 0.21353122289182436 3.875 0.24114474957192472
v 0.13338505787372662 0.875 0.3797126628265316
v 0.13338505787372662 3.875 0.3797126628265316
v 0.11662994694145157 0.875 0.5388405857777387
v 0.11662994694145157 3.875 0.5388405857777387
v 0.16616300099059378 0.875 0.6910138549154856
v 0.16616300099059378 3.875 0.6910138549154856
v 0.2734195049823873 0.875 0.8099203295551061
v 0.2734195049823873 3.875 0.8099203295551061
v 0.4198538349819021 0.875 0.875
v 0.4198538349819021 3.875 0.875
v 0.13124999999999998 1 0.11875000000000002
v 0.13124999999999998 1 -0.006249999999999978
v 0.13124999999999998 0 0.11875000000000002
v 0.13124999999999998 0 -0.006249999999999978
v 0.006249999999999978 1 0.11875000000000002
v 0.006249999999999978 1 -0.006249999999999978
v 0.006249999999999978 0 0.11875000000000002
v 0.006249999999999978 0 -0.006249999999999978
v 0.13124999999999998 1 0.99375
v 0.13124999999999998 1 0.86875
v 0.13124999999999998 0 0.99375
v 0.13124999999999998 0 0.86875
v 0.006249999999999978 1 0.99375
v 0.006249999999999978 1 0.86875
v 0.006249999999999978 0 0.99375
v 0.006249999999999978 0 0.86875
v 1.00625 1 0.99375
v 1.00625 1 0.86875
v 1.00625 0 0.99375
v 1.00625 0 0.86875
v 0.88125 1 0.99375
v 0.88125 1 0.86875
v 0.88125 0 0.99375
v 0.88125 0 0.86875
v 0.88125 0.125 0.99375
v 0.88125 0.125 0.86875
v 0.88125 0 0.99375
v 0.88125 0 0.86875
v 0.13124999999999998 0.125 0.99375
v 0.13124999999999998 0.125 0.86875
v 0.13124999999999998 0 0.99375
v 0.13124999999999998 0 0.86875
v 0.94375 0.9375 0.93125
v 0.94375 0.9375 0.05625000000000002
v 0.94375 0.0625 0.93125
v 0.94375 0.0625 0.05625000000000002
v 0.06874999999999998 0.9375 0.93125
v 0.06874999999999998 0.9375 0.05625000000000002
v 0.06874999999999998 0.0625 0.93125
v 0.06874999999999998 0.0625 0.05625000000000002
v 0.88125 0.125 0.11875000000000002
v 0.88125 0.125 -0.006249999999999978
v 0.88125 0 0.11875000000000002
v 0.88125 0 -0.006249999999999978
v 0.13124999999999998 0.125 0.11875000000000002
v 0.13124999999999998 0.125 -0.006249999999999978
v 0.13124999999999998 0 0.11875000000000002
v 0.13124999999999998 0 -0.006249999999999978
v 0.13124999999999998 0.125 0.86875
v 0.13124999999999998 0.125 0.11875000000000002
v 0.13124999999999998 0 0.86875
v 0.13124999999999998 0 0.11875000000000002
v 0.006249999999999978 0.125 0.86875
v 0.006249999999999978 0.125 0.11875000000000002
v 0.006249999999999978 0 0.86875
v 0.006249999999999978 0 0.11875000000000002
v 1.00625 0.125 0.86875
v 1.00625 0.125 0.11875000000000002
v 1.00625 0 0.86875
v 1.00625 0 0.11875000000000002
v 0.88125 0.125 0.86875
v 0.88125 0.125 0.11875000000000002
v 0.88125 0 0.86875
v 0.88125 0 0.11875000000000002
v 0.88125 1 0.99375
v 0.88125 1 0.86875
v 0.88125 0.875 0.99375
v 0.88125 0.875 0.86875
v 0.13124999999999998 1 0.99375
v 0.13124999999999998 1 0.86875
v 0.13124999999999998 0.875 0.99375
v 0.13124999999999998 0.875 0.86875
v 0.88125 1 0.11875000000000002
v 0.88125 1 -0.006249999999999978
v 0.88125 0.875 0.11875000000000002
v 0.88125 0.875 -0.006249999999999978
v 0.13124999999999998 1 0.11875000000000002
v 0.13124999999999998 1 -0.006249999999999978
v 0.13124999999999998 0.875 0.11875000000000002
v 0.13124999999999998 0.875 -0.006249999999999978
v 1.00625 1 0.86875
v 1.00625 1 0.11875000000000002
v 1.00625 0.875 0.86875
v 1.00625 0.875 0.11875000000000002
v 0.88125 1 0.86875
v 0.88125 1 0.11875000000000002
v 0.88125 0.875 0.86875
v 0.88125 0.875 0.11875000000000002
v 0.13124999999999998 1 0.86875
v 0.13124999999999998 1 0.11875000000000002
v 0.13124999999999998 0.875 0.86875
v 0.13124999999999998 0.875 0.11875000000000002
v 0.006249999999999978 1 0.86875
v 0.006249999999999978 1 0.11875000000000002
v 0.006249999999999978 0.875 0.86875
v 0.006249999999999978 0.875 0.11875000000000002
v 1.00625 1 0.11875000000000002
v 1.00625 1 -0.006249999999999978
v 1.00625 0 0.11875000000000002
v 1.00625 0 -0.006249999999999978
v 0.88125 1 0.11875000000000002
v 0.88125 1 -0.006249999999999978
v 0.88125 0 0.11875000000000002
v 0.88125 0 -0.006249999999999978
vt 0.51660390625 0.9854484375
vt 0.49829921875 0.9935835937499999
vt 0.48828125 0.9465359375
vt 0.04126796875000001 0.625
vt 0.0612984375 0.625
vt 0.0612984375 1
vt 0.041267968749999995 1
vt 0.49829921875 0.7954789062500001
vt 0.51660390625 0.8036140625
vt 0.48828125 0.8425265625
vt 0.5300109375 0.97058515625
vt 0.51660390625 0.9854484375
vt 0.48828125 0.9465359375
vt 0.265625 0.2421875
vt 0.2890625 0.2421875
vt 0.2890625 0.6171875
vt 0.265625 0.6171875
vt 0.51660390625 0.8036140625
vt 0.5300109375 0.81847734375
vt 0.48828125 0.8425265625
vt 0.53620234375 0.95156328125
vt 0.5300109375 0.97058515625
vt 0.48828125 0.9465359375
vt 0.0703125 0.625
vt 0.09031640625000001 0.625
vt 0.09031640625000001 1
vt 0.0703125 1
vt 0.5300109375 0.81847734375
vt 0.53620234375 0.83749921875
vt 0.48828125 0.8425265625
vt 0.5341078125000001 0.93167265625
vt 0.53620234375 0.95156328125
vt 0.48828125 0.9465359375
vt 0.09031640625000001 0.625
vt 0.1103171875 0.625
vt 0.1103171875 1
vt 0.09031640625000001 1
vt 0.53620234375 0.83749921875
vt 0.5341078125000001 0.85738984375
vt 0.48828125 0.8425265625
vt 0.52408984375 0.9143515625
vt 0.5341078125000001 0.93167265625
vt 0.48828125 0.9465359375
vt 0.1103171875 0.625
vt 0.1303265625 0.625
vt 0.1303265625 1
vt 0.1103171875 1
vt 0.5341078125000001 0.85738984375
vt 0.52408984375 0.8747109375
vt 0.48828125 0.8425265625
vt 0.5078796875 0.9025953125
vt 0.52408984375 0.9143515625
vt 0.48828125 0.9465359375
vt 0.265625 0.625
vt 0.28564921875 0.625
vt 0.28564921875 1
vt 0.265625 1
vt 0.52408984375 0.8747109375
vt 0.5078796875 0.8864671875
vt 0.48828125 0.8425265625
vt 0.48828125 0.8984375
vt 0.5078796875 0.9025953125
vt 0.48828125 0.9465359375
vt 0.28564921875 0.625
vt 0.305684375 0.625
vt 0.305684375 1
vt 0.28564921875 1
vt 0.5078796875 0.8864671875
vt 0.48828125 0.890625
vt 0.48828125 0.8425265625
vt 0.4686828125 0.9025953125
vt 0.48828125 0.8984375
vt 0.48828125 0.9465359375
vt 0.217753125 0.625
vt 0.23778828125 0.625
vt 0.23778828125 1
vt 0.217753125 1
vt 0.48828125 0.890625
vt 0.4686828125 0.8864671875
vt 0.48828125 0.8425265625
vt 0.45247265625 0.9143515625
vt 0.4686828125 0.9025953125
vt 0.48828125 0.9465359375
vt 0.23778828125 0.625
vt 0.2578125 0.625
vt 0.2578125 1
vt 0.23778828125 1
vt 0.4686828125 0.8864671875
vt 0.45247265625 0.8747109375
vt 0.48828125 0.8425265625
vt 0.4424546875 0.93167265625
vt 0.45247265625 0.9143515625
vt 0.48828125 0.9465359375
vt 0.1431109375 0.625
vt 0.1631203125 0.625
vt 0.1631203125 1
vt 0.1431109375 1
vt 0.45247265625 0.8747109375
vt 0.4424546875 0.85738984375
vt 0.48828125 0.8425265625
vt 0.44036015625 0.95156328125
vt 0.4424546875 0.93167265625
vt 0.48828125 0.9465359375
vt 0.1631203125 0.625
vt 0.18312109375 0.625
vt 0.18312109375 1
vt 0.1631203125 1
vt 0.4424546875 0.85738984375
vt 0.44036015625 0.83749921875
vt 0.48828125 0.8425265625
vt 0.4465515625 0.97058515625
vt 0.44036015625 0.95156328125
vt 0.48828125 0.9465359375
vt 0.18312109375 0.625
vt 0.203125 0.625
vt 0.203125 1
vt 0.18312109375 1
vt 0.44036015625 0.83749921875
vt 0.4465515625 0.81847734375
vt 0.48828125 0.8425265625
vt 0.45995859375 0.9854484375
vt 0.4465515625 0.97058515625
vt 0.48828125 0.9465359375
vt 0.234375 0.2421875
vt 0.2578125 0.2421875
vt 0.2578125 0.6171875
vt 0.234375 0.6171875
vt 0.4465515625 0.81847734375
vt 0.45995859375 0.8036140625
vt 0.48828125 0.8425265625
vt 0.47826328125 0.9935835937499999
vt 0.45995859375 0.9854484375
vt 0.48828125 0.9465359375
vt 0.0012015624999999995 0.625
vt 0.02123203125 0.625
vt 0.021232031250000002 1
vt 0.001201562500000003 1
vt 0.45995859375 0.8036140625
vt 0.47826328125 0.7954789062500001
vt 0.48828125 0.8425265625
vt 0.49829921875 0.9935835937499999
vt 0.47826328125 0.9935835937499999
vt 0.48828125 0.9465359375
vt 0.021232031250000002 0.625
vt 0.041267968749999995 0.625
vt 0.041267968749999995 1
vt 0.021232031250000002 1
vt 0.47826328125 0.7954789062500001
vt 0.49829921875 0.7954789062500001
vt 0.48828125 0.8425265625
vt 0.4765625 0.5234375
vt 0.4765625 0.6484375
vt 0.4609375 0.6484375
vt 0.4609375 0.5234375
vt 0.3359375 0.40625
vt 0.3359375 0.53125
vt 0.3203125 0.53125
vt 0.3203125 0.40625
vt 0.109375 0.4140625
vt 0.109375 0.4296875
vt 0.09375 0.4296875
vt 0.09375 0.4140625
vt 0.1328125 0.4140625
vt 0.1328125 0.4296875
vt 0.1171875 0.4296875
vt 0.1171875 0.4140625
vt 0.359375 0.40625
vt 0.359375 0.53125
vt 0.34375 0.53125
vt 0.34375 0.40625
vt 0.3828125 0.40625
vt 0.3828125 0.53125
vt 0.3671875 0.53125
vt 0.3671875 0.40625
vt 0.40625 0.40625
vt 0.40625 0.53125
vt 0.390625 0.53125
vt 0.390625 0.40625
vt 0.4296875 0.40625
vt 0.4296875 0.53125
vt 0.4140625 0.53125
vt 0.4140625 0.40625
vt 0.15625 0.4140625
vt 0.15625 0.4296875
vt 0.140625 0.4296875
vt 0.140625 0.4140625
vt 0.1796875 0.4140625
vt 0.1796875 0.4296875
vt 0.1640625 0.4296875
vt 0.1640625 0.4140625
vt 0.453125 0.3984375
vt 0.453125 0.5234375
vt 0.4375 0.5234375
vt 0.4375 0.3984375
vt 0.5 0.65625
vt 0.5 0.78125
vt 0.484375 0.78125
vt 0.484375 0.65625
vt 0.5 0.5234375
vt 0.5 0.6484375
vt 0.484375 0.6484375
vt 0.484375 0.5234375
vt 0.4765625 0.390625
vt 0.4765625 0.515625
vt 0.4609375 0.515625
vt 0.4609375 0.390625
vt 0.203125 0.4140625
vt 0.203125 0.4296875
vt 0.1875 0.4296875
vt 0.1875 0.4140625
vt 0.2265625 0.4140625
vt 0.2265625 0.4296875
vt 0.2109375 0.4296875
vt 0.2109375 0.4140625
vt 0.5 0.390625
vt 0.5 0.515625
vt 0.484375 0.515625
vt 0.484375 0.390625
vt 0.015625 0.375
vt 0.015625 0.5
vt 0 0.5
vt 0 0.375
vt 0.59375 0.578125
vt 0.59375 0.59375
vt 0.578125 0.59375
vt 0.578125 0.578125
vt 0.59375 0.5546875
vt 0.59375 0.5703125
vt 0.578125 0.5703125
vt 0.578125 0.5546875
vt 0.1171875 0.484375
vt 0.1171875 0.5
vt 0.0234375 0.5
vt 0.0234375 0.484375
vt 0.21875 0.484375
vt 0.21875 0.5
vt 0.125 0.5
vt 0.125 0.484375
vt 0.6015625 0.765625
vt 0.6015625 0.78125
vt 0.5078125 0.78125
vt 0.5078125 0.765625
vt 0.6015625 0.7421875
vt 0.6015625 0.7578125
vt 0.5078125 0.7578125
vt 0.5078125 0.7421875
vt 0.4296875 0.890625
vt 0.4296875 1
vt 0.3203125 1
vt 0.3203125 0.890625
vt 0.4296875 0.7734375
vt 0.4296875 0.8828125
vt 0.3203125 0.8828125
vt 0.3203125 0.7734375
vt 0.4296875 0.65625
vt 0.4296875 0.765625
vt 0.3203125 0.765625
vt 0.3203125 0.65625
vt 0.4296875 0.5390625
vt 0.4296875 0.6484375
vt 0.3203125 0.6484375
vt 0.3203125 0.5390625
vt 0.109375 0.5078125
vt 0.109375 0.6171875
vt 0 0.6171875
vt 0 0.5078125
vt 0.2265625 0.5078125
vt 0.2265625 0.6171875
vt 0.1171875 0.6171875
vt 0.1171875 0.5078125
vt 0.59375 0.53125
vt 0.59375 0.546875
vt 0.578125 0.546875
vt 0.578125 0.53125
vt 0.59375 0.5078125
vt 0.59375 0.5234375
vt 0.578125 0.5234375
vt 0.578125 0.5078125
vt 0.6015625 0.71875
vt 0.6015625 0.734375
vt 0.5078125 0.734375
vt 0.5078125 0.71875
vt 0.6015625 0.6953125
vt 0.6015625 0.7109375
vt 0.5078125 0.7109375
vt 0.5078125 0.6953125
vt 0.6015625 0.671875
vt 0.6015625 0.6875
vt 0.5078125 0.6875
vt 0.5078125 0.671875
vt 0.6015625 0.6484375
vt 0.6015625 0.6640625
vt 0.5078125 0.6640625
vt 0.5078125 0.6484375
vt 0.6015625 0.625
vt 0.6015625 0.640625
vt 0.5078125 0.640625
vt 0.5078125 0.625
vt 0.6015625 0.6015625
vt 0.6015625 0.6171875
vt 0.5078125 0.6171875
vt 0.5078125 0.6015625
vt 0.5234375 0.5
vt 0.5234375 0.59375
vt 0.5078125 0.59375
vt 0.5078125 0.5
vt 0.5234375 0.3984375
vt 0.5234375 0.4921875
vt 0.5078125 0.4921875
vt 0.5078125 0.3984375
vt 0.59375 0.4296875
vt 0.59375 0.4453125
vt 0.578125 0.4453125
vt 0.578125 0.4296875
vt 0.59375 0.40625
vt 0.59375 0.421875
vt 0.578125 0.421875
vt 0.578125 0.40625
vt 0.1171875 0.4609375
vt 0.1171875 0.4765625
vt 0.0234375 0.4765625
vt 0.0234375 0.4609375
vt 0.21875 0.4609375
vt 0.21875 0.4765625
vt 0.125 0.4765625
vt 0.125 0.4609375
vt 0.3125 0.390625
vt 0.3125 0.484375
vt 0.296875 0.484375
vt 0.296875 0.390625
vt 0.546875 0.5
vt 0.546875 0.59375
vt 0.53125 0.59375
vt 0.53125 0.5
vt 0.0625 0.390625
vt 0.0625 0.40625
vt 0.046875 0.40625
vt 0.046875 0.390625
vt 0.0859375 0.390625
vt 0.0859375 0.40625
vt 0.0703125 0.40625
vt 0.0703125 0.390625
vt 0.109375 0.390625
vt 0.109375 0.40625
vt 0.09375 0.40625
vt 0.09375 0.390625
vt 0.1328125 0.390625
vt 0.1328125 0.40625
vt 0.1171875 0.40625
vt 0.1171875 0.390625
vt 0.625 0.4765625
vt 0.625 0.4921875
vt 0.53125 0.4921875
vt 0.53125 0.4765625
vt 0.625 0.453125
vt 0.625 0.46875
vt 0.53125 0.46875
vt 0.53125 0.453125
vt 0.6328125 0.984375
vt 0.6328125 1
vt 0.5390625 1
vt 0.5390625 0.984375
vt 0.6328125 0.8984375
vt 0.6328125 0.9140625
vt 0.5390625 0.9140625
vt 0.5390625 0.8984375
vt 0.15625 0.390625
vt 0.15625 0.40625
vt 0.140625 0.40625
vt 0.140625 0.390625
vt 0.1796875 0.390625
vt 0.1796875 0.40625
vt 0.1640625 0.40625
vt 0.1640625 0.390625
vt 0.6328125 0.875
vt 0.6328125 0.890625
vt 0.5390625 0.890625
vt 0.5390625 0.875
vt 0.6328125 0.796875
vt 0.6328125 0.8125
vt 0.5390625 0.8125
vt 0.5390625 0.796875
vt 0.1171875 0.4375
vt 0.1171875 0.453125
vt 0.0234375 0.453125
vt 0.0234375 0.4375
vt 0.640625 0.9609375
vt 0.640625 0.9765625
vt 0.546875 0.9765625
vt 0.546875 0.9609375
vt 0.640625 0.9375
vt 0.640625 0.953125
vt 0.546875 0.953125
vt 0.546875 0.9375
vt 0.21875 0.4375
vt 0.21875 0.453125
vt 0.125 0.453125
vt 0.125 0.4375
vt 0.5703125 0.5
vt 0.5703125 0.59375
vt 0.5546875 0.59375
vt 0.5546875 0.5
vt 0.546875 0.3515625
vt 0.546875 0.4453125
vt 0.53125 0.4453125
vt 0.53125 0.3515625
vt 0.203125 0.390625
vt 0.203125 0.40625
vt 0.1875 0.40625
vt 0.1875 0.390625
vt 0.2265625 0.390625
vt 0.2265625 0.40625
vt 0.2109375 0.40625
vt 0.2109375 0.390625
vt 0.640625 0.8515625
vt 0.640625 0.8671875
vt 0.546875 0.8671875
vt 0.546875 0.8515625
vt 0.640625 0.828125
vt 0.640625 0.84375
vt 0.546875 0.84375
vt 0.546875 0.828125
vt 0.5703125 0.3515625
vt 0.5703125 0.4453125
vt 0.5546875 0.4453125
vt 0.5546875 0.3515625
vt 0.0390625 0.3359375
vt 0.0390625 0.4296875
vt 0.0234375 0.4296875
vt 0.0234375 0.3359375
vt 0.3359375 0.3828125
vt 0.3359375 0.3984375
vt 0.3203125 0.3984375
vt 0.3203125 0.3828125
vt 0.359375 0.3828125
vt 0.359375 0.3984375
vt 0.34375 0.3984375
vt 0.34375 0.3828125
vt 0.3125 0.4921875
vt 0.3125 0.6171875
vt 0.296875 0.6171875
vt 0.296875 0.4921875
vt 0.453125 0.6640625
vt 0.453125 0.7890625
vt 0.4375 0.7890625
vt 0.4375 0.6640625
vt 0.0625 0.4140625
vt 0.0625 0.4296875
vt 0.046875 0.4296875
vt 0.046875 0.4140625
vt 0.0859375 0.4140625
vt 0.0859375 0.4296875
vt 0.0703125 0.4296875
vt 0.0703125 0.4140625
vt 0.453125 0.53125
vt 0.453125 0.65625
vt 0.4375 0.65625
vt 0.4375 0.53125
vt 0.4765625 0.65625
vt 0.4765625 0.78125
vt 0.4609375 0.78125
vt 0.4609375 0.65625
vn 0 -1 0
vn 0.40612672020136203 0 0.9138167689085622
vn 0 1 0
vn 0 -1 0
vn 0.7425463458152692 0 0.6697946881816775
vn 0 1 0
vn 0 -1 0
vn 0.9508930086484528 0 0.3095197669026867
vn 0 1 0
vn 0 -1 0
vn 0.994502327222045 0 -0.10471447440510082
vn 0 1 0
vn 0 -1 0
vn 0.8656357700994809 0 -0.5006742588992156
vn 0 1 0
vn 0 -1 0
vn 0.5870936666206306 0 -0.8095190094209919
vn 0 1 0
vn 0 -1 0
vn 0.20755438009510316 0 -0.9782234812676179
vn 0 1 0
vn 0 -1 0
vn -0.20755438009510277 0 -0.9782234812676179
vn 0 1 0
vn 0 -1 0
vn -0.5870936666206301 0 -0.8095190094209922
vn 0 1 0
vn 0 -1 0
vn -0.8656357700994808 0 -0.5006742588992157
vn 0 1 0
vn 0 -1 0
vn -0.994502327222045 0 -0.10471447440510102
vn 0 1 0
vn 0 -1 0
vn -0.9508930086484527 0 0.30951976690268695
vn 0 1 0
vn 0 -1 0
vn -0.7425463458152693 0 0.6697946881816774
vn 0 1 0
vn 0 -1 0
vn -0.40612672020136265 0 0.9138167689085619
vn 0 1 0
vn 0 -1 0
vn 0 0 1
vn 0 1 0
vn 1 0 0
vn -1 0 0
vn 0 1 0
vn 0 -1 0
vn 0 0 1
vn 0 0 -1
vn 1 0 0
vn -1 0 0
vn 0 1 0
vn 0 -1 0
vn 0 0 1
vn 0 0 -1
vn 1 0 0
vn -1 0 0
vn 0 1 0
vn 0 -1 0
vn 0 0 1
vn 0 0 -1
vn 1 0 0
vn -1 0 0
vn 0 1 0
vn 0 -1 0
vn 0 0 1
vn 0 0 -1
vn 1 0 0
vn -1 0 0
vn 0 1 0
vn 0 -1 0
vn 0 0 1
vn 0 0 -1
vn 1 0 0
vn -1 0 0
vn 0 1 0
vn 0 -1 0
vn 0 0 1
vn 0 0 -1
vn 1 0 0
vn -1 0 0
vn 0 1 0
vn 0 -1 0
vn 0 0 1
vn 0 0 -1
vn 1 0 0
vn -1 0 0
vn 0 1 0
vn 0 -1 0
vn 0 0 1
vn 0 0 -1
vn 1 0 0
vn -1 0 0
vn 0 1 0
vn 0 -1 0
vn 0 0 1
vn 0 0 -1
vn 1 0 0
vn -1 0 0
vn 0 1 0
vn 0 -1 0
vn 0 0 1
vn 0 0 -1
vn 1 0 0
vn -1 0 0
vn 0 1 0
vn 0 -1 0
vn 0 0 1
vn 0 0 -1
vn 1 0 0
vn -1 0 0
vn 0 1 0
vn 0 -1 0
vn 0 0 1
vn 0 0 -1
vn 1 0 0
vn -1 0 0
vn 0 1 0
vn 0 -1 0
vn 0 0 1
vn 0 0 -1
usemtl m_0dceaa16-5707-4e40-41c4-6a27053fb32a
f 5/1/1 3/2/1 1/3/1
f 3/4/2 5/5/2 6/6/2 4/7/2
f 4/8/3 6/9/3 2/10/3
f 7/11/4 5/12/4 1/13/4
f 5/14/5 7/15/5 8/16/5 6/17/5
f 6/18/6 8/19/6 2/20/6
f 9/21/7 7/22/7 1/23/7
f 7/24/8 9/25/8 10/26/8 8/27/8
f 8/28/9 10/29/9 2/30/9
f 11/31/10 9/32/10 1/33/10
f 9/34/11 11/35/11 12/36/11 10/37/11
f 10/38/12 12/39/12 2/40/12
f 13/41/13 11/42/13 1/43/13
f 11/44/14 13/45/14 14/46/14 12/47/14
f 12/48/15 14/49/15 2/50/15
f 15/51/16 13/52/16 1/53/16
f 13/54/17 15/55/17 16/56/17 14/57/17
f 14/58/18 16/59/18 2/60/18
f 17/61/19 15/62/19 1/63/19
f 15/64/20 17/65/20 18/66/20 16/67/20
f 16/68/21 18/69/21 2/70/21
f 19/71/22 17/72/22 1/73/22
f 17/74/23 19/75/23 20/76/23 18/77/23
f 18/78/24 20/79/24 2/80/24
f 21/81/25 19/82/25 1/83/25
f 19/84/26 21/85/26 22/86/26 20/87/26
f 20/88/27 22/89/27 2/90/27
f 23/91/28 21/92/28 1/93/28
f 21/94/29 23/95/29 24/96/29 22/97/29
f 22/98/30 24/99/30 2/100/30
f 25/101/31 23/102/31 1/103/31
f 23/104/32 25/105/32 26/106/32 24/107/32
f 24/108/33 26/109/33 2/110/33
f 27/111/34 25/112/34 1/113/34
f 25/114/35 27/115/35 28/116/35 26/117/35
f 26/118/36 28/119/36 2/120/36
f 29/121/37 27/122/37 1/123/37
f 27/124/38 29/125/38 30/126/38 28/127/38
f 28/128/39 30/129/39 2/130/39
f 31/131/40 29/132/40 1/133/40
f 29/134/41 31/135/41 32/136/41 30/137/41
f 30/138/42 32/139/42 2/140/42
f 3/141/43 31/142/43 1/143/43
f 31/144/44 3/145/44 4/146/44 32/147/44
f 32/148/45 4/149/45 2/150/45
f 36/151/46 34/152/46 33/153/46 35/154/46
f 39/155/47 37/156/47 38/157/47 40/158/47
f 33/159/48 34/160/48 38/161/48 37/162/48
f 36/163/49 35/164/49 39/165/49 40/166/49
f 35/167/50 33/168/50 37/169/50 39/170/50
f 40/171/51 38/172/51 34/173/51 36/174/51
f 44/175/52 42/176/52 41/177/52 43/178/52
f 47/179/53 45/180/53 46/181/53 48/182/53
f 41/183/54 42/184/54 46/185/54 45/186/54
f 44/187/55 43/188/55 47/189/55 48/190/55
f 43/191/56 41/192/56 45/193/56 47/194/56
f 48/195/57 46/196/57 42/197/57 44/198/57
f 52/199/58 50/200/58 49/201/58 51/202/58
f 55/203/59 53/204/59 54/205/59 56/206/59
f 49/207/60 50/208/60 54/209/60 53/210/60
f 52/211/61 51/212/61 55/213/61 56/214/61
f 51/215/62 49/216/62 53/217/62 55/218/62
f 56/219/63 54/220/63 50/221/63 52/222/63
f 60/223/64 58/224/64 57/225/64 59/226/64
f 63/227/65 61/228/65 62/229/65 64/230/65
f 57/231/66 58/232/66 62/233/66 61/234/66
f 60/235/67 59/236/67 63/237/67 64/238/67
f 59/239/68 57/240/68 61/241/68 63/242/68
f 64/243/69 62/244/69 58/245/69 60/246/69
f 68/247/70 66/248/70 65/249/70 67/250/70
f 71/251/71 69/252/71 70/253/71 72/254/71
f 65/255/72 66/256/72 70/257/72 69/258/72
f 68/259/73 67/260/73 71/261/73 72/262/73
f 67/263/74 65/264/74 69/265/74 71/266/74
f 72/267/75 70/268/75 66/269/75 68/270/75
f 76/271/76 74/272/76 73/273/76 75/274/76
f 79/275/77 77/276/77 78/277/77 80/278/77
f 73/279/78 74/280/78 78/281/78 77/282/78
f 76/283/79 75/284/79 79/285/79 80/286/79
f 75/287/80 73/288/80 77/289/80 79/290/80
f 80/291/81 78/292/81 74/293/81 76/294/81
f 84/295/82 82/296/82 81/297/82 83/298/82
f 87/299/83 85/300/83 86/301/83 88/302/83
f 81/303/84 82/304/84 86/305/84 85/306/84
f 84/307/85 83/308/85 87/309/85 88/310/85
f 83/311/86 81/312/86 85/313/86 87/314/86
f 88/315/87 86/316/87 82/317/87 84/318/87
f 92/319/88 90/320/88 89/321/88 91/322/88
f 95/323/89 93/324/89 94/325/89 96/326/89
f 89/327/90 90/328/90 94/329/90 93/330/90
f 92/331/91 91/332/91 95/333/91 96/334/91
f 91/335/92 89/336/92 93/337/92 95/338/92
f 96/339/93 94/340/93 90/341/93 92/342/93
f 100/343/94 98/344/94 97/345/94 99/346/94
f 103/347/95 101/348/95 102/349/95 104/350/95
f 97/351/96 98/352/96 102/353/96 101/354/96
f 100/355/97 99/356/97 103/357/97 104/358/97
f 99/359/98 97/360/98 101/361/98 103/362/98
f 104/363/99 102/364/99 98/365/99 100/366/99
f 108/367/100 106/368/100 105/369/100 107/370/100
f 111/371/101 109/372/101 110/373/101 112/374/101
f 105/375/102 106/376/102 110/377/102 109/378/102
f 108/379/103 107/380/103 111/381/103 112/382/103
f 107/383/104 105/384/104 109/385/104 111/386/104
f 112/387/105 110/388/105 106/389/105 108/390/105
f 116/391/106 114/392/106 113/393/106 115/394/106
f 119/395/107 117/396/107 118/397/107 120/398/107
f 113/399/108 114/400/108 118/401/108 117/402/108
f 116/403/109 115/404/109 119/405/109 120/406/109
f 115/407/110 113/408/110 117/409/110 119/410/110
f 120/411/111 118/412/111 114/413/111 116/414/111
f 124/415/112 122/416/112 121/417/112 123/418/112
f 127/419/113 125/420/113 126/421/113 128/422/113
f 121/423/114 122/424/114 126/425/114 125/426/114
f 124/427/115 123/428/115 127/429/115 128/430/115
f 123/431/116 121/432/116 125/433/116 127/434/116
f 128/435/117 126/436/117 122/437/117 124/438/117
f 132/439/118 130/440/118 129/441/118 131/442/118
f 135/443/119 133/444/119 134/445/119 136/446/119
f 129/447/120 130/448/120 134/449/120 133/450/120
f 132/451/121 131/452/121 135/453/121 136/454/121
f 131/455/122 129/456/122 133/457/122 135/458/122
f 136/459/123 134/460/123 130/461/123 132/462/123