# Made in Blockbench 5.0.7
mtllib combination_oven.mtl

o mesh
v 2 0.125 3
v 2 0.125 0
v 2 0 3
v 2 0 0
v -1 0.125 3
v -1 0.125 0
v -1 0 3
v -1 0 0
v 1.875 1 2.875
v 1.875 1 0.125
v 1.875 0 2.875
v 1.875 0 0.125
v -0.875 1 2.875
v -0.875 1 0.125
v -0.875 0 2.875
v -0.875 0 0.125
v 1.53125 1.6875 2.53125
v 1.53125 1.6875 0.46875
v -0.53125 1.6875 2.53125
v -0.53125 1.6875 0.46875
v 1.53125 2.1875 2.53125
v 1.53125 2.1875 0.46875
v -0.53125 2.1875 2.53125
v -0.53125 2.1875 0.46875
vt 0.53515625 0.82421875
vt 0.34765625 0.82421875
vt 0.34765625 0.81640625
vt 0.53515625 0.81640625
vt 0.53515625 0.8046875
vt 0.53515625 0.8125
vt 0.34765625 0.8125
vt 0.34765625 0.8046875
vt 0 0.8125
vt 0.1875 0.8125
vt 0.1875 1
vt 0 1
vt 0.1875 0.62109375
vt 0.1875 0.80859375
vt 0 0.80859375
vt 0 0.62109375
vt 0.53515625 0.79296875
vt 0.53515625 0.80078125
vt 0.34765625 0.80078125
vt 0.34765625 0.79296875
vt 0.54296875 0.7890625
vt 0.35546875 0.7890625
vt 0.35546875 0.78125
vt 0.54296875 0.78125
vt 0.36328125 0.7449281249999999
vt 0.19140625 0.7449281249999999
vt 0.19140625 0.6824281249999999
vt 0.36328125 0.6824281249999999
vt 0.35546875 0.5339906249999999
vt 0.35546875 0.5964906249999999
vt 0.18359375 0.5964906249999999
vt 0.18359375 0.5339906249999999
vt 0 0.48828125
vt 0.12890625 0.48828125
vt 0.12890625 0.6171875
vt 0 0.6171875
vt 0.36328125 0.828125
vt 0.36328125 1
vt 0.19140625 1
vt 0.19140625 0.828125
vt 0.53125 0.5925843749999999
vt 0.53125 0.6550843749999999
vt 0.359375 0.6550843749999999
vt 0.359375 0.5925843749999999
vt 0.5390625 0.9207093749999999
vt 0.3671875 0.9207093749999999
vt 0.3671875 0.8582093749999999
vt 0.5390625 0.8582093749999999
vt 0.509765625 0.703125
vt 0.380859375 0.703125
vt 0.359375 0.6550843749999999
vt 0.53125 0.6550843749999999
vt 0.341796875 0.79296875
vt 0.212890625 0.79296875
vt 0.19140625 0.7449281249999999
vt 0.36328125 0.7449281249999999
vt 0.517578125 0.96875
vt 0.388671875 0.96875
vt 0.3671875 0.9207093749999999
vt 0.5390625 0.9207093749999999
vt 0.333984375 0.64453125
vt 0.205078125 0.64453125
vt 0.18359375 0.5964906249999999
vt 0.35546875 0.5964906249999999
vt 0.509765625 0.734375
vt 0.380859375 0.734375
vt 0.380859375 0.703125
vt 0.509765625 0.703125
vt 0.341796875 0.82421875
vt 0.212890625 0.82421875
vt 0.212890625 0.79296875
vt 0.341796875 0.79296875
vt 0.517578125 1
vt 0.388671875 1
vt 0.388671875 0.96875
vt 0.517578125 0.96875
vt 0.333984375 0.67578125
vt 0.205078125 0.67578125
vt 0.205078125 0.64453125
vt 0.333984375 0.64453125
vn 1 0 0
vn -1 0 0
vn 0 1 0
vn 0 -1 0
vn 0 0 1
vn 0 0 -1
vn 1 0 0
vn -1 0 0
vn 0 1 0
vn 0 -1 0
vn 0 0 1
vn 0 0 -1
vn 0 0.44721359549995804 0.8944271909999161
vn 0.8944271909999161 0.44721359549995804 0
vn 0 0.44721359549995804 -0.8944271909999161
vn -0.8944271909999161 0.44721359549995804 0
vn 0 0 1
vn 1 0 0
vn 0 0 -1
vn -1 0 0
usemtl m_a7359ed0-6e3f-887c-df8b-28b15aafe7b4
f 2/1/1 1/2/1 3/3/1 4/4/1
f 7/5/2 5/6/2 6/7/2 8/8/2
f 5/9/3 1/10/3 2/11/3 6/12/3
f 4/13/4 3/14/4 7/15/4 8/16/4
f 3/17/5 1/18/5 5/19/5 7/20/5
f 6/21/6 2/22/6 4/23/6 8/24/6
f 10/25/7 9/26/7 11/27/7 12/28/7
f 15/29/8 13/30/8 14/31/8 16/32/8
f 23/33/9 21/34/9 22/35/9 24/36/9
f 12/37/10 11/38/10 15/39/10 16/40/10
f 11/41/11 9/42/11 13/43/11 15/44/11
f 14/45/12 10/46/12 12/47/12 16/48/12
f 17/49/13 19/50/13 13/51/13 9/52/13
f 18/53/14 17/54/14 9/55/14 10/56/14
f 20/57/15 18/58/15 10/59/15 14/60/15
f 19/61/16 20/62/16 14/63/16 13/64/16
f 21/65/17 23/66/17 19/67/17 17/68/17
f 22/69/18 21/70/18 17/71/18 18/72/18
f 24/73/19 22/74/19 18/75/19 20/76/19
f 23/77/20 24/78/20 20/79/20 19/80/20