# Made in Blockbench 5.0.7
mtllib heating_oven.mtl

o mesh
v 1.063839375 0.9375 -0.919643125
v 1.063839375 0.9375 -0.9821431249999999
v 1.063839375 0 -0.919643125
v 1.063839375 0 -0.9821431249999999
v -1.936160625 0.9375 -0.919643125
v -1.936160625 0.9375 -0.9821431249999999
v -1.936160625 0 -0.919643125
v -1.936160625 0 -0.9821431249999999
v 1.032589375 0.9375 1.986606875
v 1.032589375 0.9375 -0.9508931249999999
v 1.032589375 0 1.986606875
v 1.032589375 0 -0.9508931249999999
v -1.904910625 0.9375 1.986606875
v -1.904910625 0.9375 -0.9508931249999999
v -1.904910625 0 1.986606875
v -1.904910625 0 -0.9508931249999999
v -1.936160625 0.9375 1.955356875
v -1.936160625 0.9375 2.017856875
v -1.936160625 0 1.955356875
v -1.936160625 0 2.017856875
v 1.001339375 0.9375 1.955356875
v 1.001339375 0.9375 2.017856875
v 1.001339375 0 1.955356875
v 1.001339375 0 2.017856875
v -1.876785625 0.9375 -0.935268125
v -1.939285625 0.9375 -0.935268125
v -1.876785625 0 -0.935268125
v -1.939285625 0 -0.935268125
v -1.876785625 0.9375 1.939731875
v -1.939285625 0.9375 1.939731875
v -1.876785625 0 1.939731875
v -1.939285625 0 1.939731875
v 0.9857143749999999 0.9375 1.939731875
v 1.048214375 0.9375 1.939731875
v 0.9857143749999999 0 1.939731875
v 1.048214375 0 1.939731875
v 0.9857143749999999 0.9375 -0.872768125
v 1.048214375 0.9375 -0.872768125
v 0.9857143749999999 0 -0.872768125
v 1.048214375 0 -0.872768125
v 0.0013393750000000315 1 0.955356875
v 0.0013393750000000315 1 0.080356875
v 0.0013393750000000315 0.9375 0.955356875
v 0.0013393750000000315 0.9375 0.080356875
v -0.8736606250000001 1 0.955356875
v -0.8736606250000001 1 0.080356875
v -0.8736606250000001 0.9375 0.955356875
v -0.8736606250000001 0.9375 0.080356875
v 1.063839375 1 2.017856875
v 1.063839375 1 -0.9821431249999999
v 1.063839375 0.9375 2.017856875
v 1.063839375 0.9375 -0.9821431249999999
v 0.06383937500000003 1 2.017856875
v 0.06383937500000003 1 -0.9821431249999999
v 0.06383937500000003 0.9375 2.017856875
v 0.06383937500000003 0.9375 -0.9821431249999999
v -0.9361606250000001 1 2.017856875
v -0.9361606250000001 1 -0.9821431249999999
v -0.9361606250000001 0.9375 2.017856875
v -0.9361606250000001 0.9375 -0.9821431249999999
v -1.936160625 1 2.017856875
v -1.936160625 1 -0.9821431249999999
v -1.936160625 0.9375 2.017856875
v -1.936160625 0.9375 -0.9821431249999999
v 0.06383937500000003 1 0.017856875
v 0.06383937500000003 1 -0.9821431249999999
v 0.06383937500000003 0.9375 0.017856875
v 0.06383937500000003 0.9375 -0.9821431249999999
v -0.9361606250000001 1 0.017856875
v -0.9361606250000001 1 -0.9821431249999999
v -0.9361606250000001 0.9375 0.017856875
v -0.9361606250000001 0.9375 -0.9821431249999999
v 0.0013393750000000315 0.6875 -0.9821431249999999
v 0.0013393750000000315 0.6875 -1.044643125
v 0.0013393750000000315 0.1875 -0.9821431249999999
v 0.0013393750000000315 0.1875 -1.044643125
v -0.8736606250000001 0.6875 -0.9821431249999999
v -0.8736606250000001 0.6875 -1.044643125
v -0.8736606250000001 0.1875 -0.9821431249999999
v -0.8736606250000001 0.1875 -1.044643125
v -0.686160625 0.625 -1.107143125
v -0.686160625 0.625 -1.169643125
v -0.686160625 0.25 -1.107143125
v -0.686160625 0.25 -1.169643125
v -0.748660625 0.625 -1.107143125
v -0.748660625 0.625 -1.169643125
v -0.748660625 0.25 -1.107143125
v -0.748660625 0.25 -1.169643125
v -0.686160625 0.625 -1.044643125
v -0.686160625 0.625 -1.107143125
v -0.686160625 0.5625 -1.044643125
v -0.686160625 0.5625 -1.107143125
v -0.748660625 0.625 -1.044643125
v -0.748660625 0.625 -1.107143125
v -0.748660625 0.5625 -1.044643125
v -0.748660625 0.5625 -1.107143125
v -0.686160625 0.3125 -1.044643125
v -0.686160625 0.3125 -1.107143125
v -0.686160625 0.25 -1.044643125
v -0.686160625 0.25 -1.107143125
v -0.748660625 0.3125 -1.044643125
v -0.748660625 0.3125 -1.107143125
v -0.748660625 0.25 -1.044643125
v -0.748660625 0.25 -1.107143125
v 0.06383937500000003 1 2.017856875
v 0.06383937500000003 1 1.017856875
v 0.06383937500000003 0.9375 2.017856875
v 0.06383937500000003 0.9375 1.017856875
v -0.9361606250000001 1 2.017856875
v -0.9361606250000001 1 1.017856875
v -0.9361606250000001 0.9375 2.017856875
v -0.9361606250000001 0.9375 1.017856875
vt 0.51171875 1
vt 0.32421875 1
vt 0.32421875 0.94140625
vt 0.51171875 0.94140625
vt 0.51171875 0.87890625
vt 0.51171875 0.9375
vt 0.32421875 0.9375
vt 0.32421875 0.87890625
vt 0 0.8125
vt 0.1875 0.8125
vt 0.1875 1
vt 0 1
vt 0.1875 0.62109375
vt 0.1875 0.80859375
vt 0 0.80859375
vt 0 0.62109375
vt 0.51171875 0.81640625
vt 0.51171875 0.875
vt 0.32421875 0.875
vt 0.32421875 0.81640625
vt 0.51171875 0.8125
vt 0.32421875 0.8125
vt 0.32421875 0.75390625
vt 0.51171875 0.75390625
vt 0.51171875 1
vt 0.32421875 1
vt 0.32421875 0.94140625
vt 0.51171875 0.94140625
vt 0.51171875 0.87890625
vt 0.51171875 0.9375
vt 0.32421875 0.9375
vt 0.32421875 0.87890625
vt 0 0.8125
vt 0.1875 0.8125
vt 0.1875 1
vt 0 1
vt 0.1875 0.62109375
vt 0.1875 0.80859375
vt 0 0.80859375
vt 0 0.62109375
vt 0.51171875 0.81640625
vt 0.51171875 0.875
vt 0.32421875 0.875
vt 0.32421875 0.81640625
vt 0.51171875 0.8125
vt 0.32421875 0.8125
vt 0.32421875 0.75390625
vt 0.51171875 0.75390625
vt 0.51171875 1
vt 0.32421875 1
vt 0.32421875 0.94140625
vt 0.51171875 0.94140625
vt 0.51171875 0.87890625
vt 0.51171875 0.9375
vt 0.32421875 0.9375
vt 0.32421875 0.87890625
vt 0 0.8125
vt 0.1875 0.8125
vt 0.1875 1
vt 0 1
vt 0.1875 0.62109375
vt 0.1875 0.80859375
vt 0 0.80859375
vt 0 0.62109375
vt 0.51171875 0.81640625
vt 0.51171875 0.875
vt 0.32421875 0.875
vt 0.32421875 0.81640625
vt 0.51171875 0.8125
vt 0.32421875 0.8125
vt 0.32421875 0.75390625
vt 0.51171875 0.75390625
vt 0.51171875 1
vt 0.32421875 1
vt 0.32421875 0.94140625
vt 0.51171875 0.94140625
vt 0.51171875 0.87890625
vt 0.51171875 0.9375
vt 0.32421875 0.9375
vt 0.32421875 0.87890625
vt 0 0.8125
vt 0.1875 0.8125
vt 0.1875 1
vt 0 1
vt 0.1875 0.62109375
vt 0.1875 0.80859375
vt 0 0.80859375
vt 0 0.62109375
vt 0.51171875 0.81640625
vt 0.51171875 0.875
vt 0.32421875 0.875
vt 0.32421875 0.81640625
vt 0.51171875 0.8125
vt 0.32421875 0.8125
vt 0.32421875 0.75390625
vt 0.51171875 0.75390625
vt 0.51171875 1
vt 0.32421875 1
vt 0.32421875 0.94140625
vt 0.51171875 0.94140625
vt 0.51171875 0.87890625
vt 0.51171875 0.9375
vt 0.32421875 0.9375
vt 0.32421875 0.87890625
vt 0 0.8125
vt 0.1875 0.8125
vt 0.1875 1
vt 0 1
vt 0.1875 0.62109375
vt 0.1875 0.80859375
vt 0 0.80859375
vt 0 0.62109375
vt 0.51171875 0.81640625
vt 0.51171875 0.875
vt 0.32421875 0.875
vt 0.32421875 0.81640625
vt 0.51171875 0.8125
vt 0.32421875 0.8125
vt 0.32421875 0.75390625
vt 0.51171875 0.75390625
vt 0.4453125 0.62890625
vt 0.4453125 0.6328125
vt 0.390625 0.6328125
vt 0.390625 0.62890625
vt 0.421875 0.59765625
vt 0.421875 0.6015625
vt 0.3671875 0.6015625
vt 0.3671875 0.59765625
vt 0.1328125 0.6171875
vt 0.1328125 0.5625
vt 0.1875 0.5625
vt 0.1875 0.6171875
vt 0.19140625 0.5625
vt 0.19140625 0.6171875
vt 0.24609375 0.6171875
vt 0.24609375 0.5625
vt 0.4453125 0.62109375
vt 0.4453125 0.625
vt 0.390625 0.625
vt 0.390625 0.62109375
vt 0.421875 0.60546875
vt 0.421875 0.609375
vt 0.3671875 0.609375
vt 0.3671875 0.60546875
vt 0.5546875 0.61328125
vt 0.5546875 0.6171875
vt 0.3671875 0.6171875
vt 0.3671875 0.61328125
vt 0.578125 0.74609375
vt 0.578125 0.75
vt 0.390625 0.75
vt 0.390625 0.74609375
vt 0.19140625 1
vt 0.19140625 0.8125
vt 0.25390625 0.8125
vt 0.25390625 1
vt 0.19140625 0.62109375
vt 0.19140625 0.80859375
vt 0.25390625 0.80859375
vt 0.25390625 0.62109375
vt 0.453125 0.71484375
vt 0.453125 0.71875
vt 0.390625 0.71875
vt 0.390625 0.71484375
vt 0.453125 0.72265625
vt 0.453125 0.7265625
vt 0.390625 0.7265625
vt 0.390625 0.72265625
vt 0.578125 0.73828125
vt 0.578125 0.7421875
vt 0.390625 0.7421875
vt 0.390625 0.73828125
vt 0.578125 0.73046875
vt 0.578125 0.734375
vt 0.390625 0.734375
vt 0.390625 0.73046875
vt 0.2578125 1
vt 0.2578125 0.8125
vt 0.3203125 0.8125
vt 0.3203125 1
vt 0.2578125 0.62109375
vt 0.2578125 0.80859375
vt 0.3203125 0.80859375
vt 0.3203125 0.62109375
vt 0.453125 0.69921875
vt 0.453125 0.703125
vt 0.390625 0.703125
vt 0.390625 0.69921875
vt 0.453125 0.70703125
vt 0.453125 0.7109375
vt 0.390625 0.7109375
vt 0.390625 0.70703125
vt 0.453125 0.68359375
vt 0.453125 0.6875
vt 0.390625 0.6875
vt 0.390625 0.68359375
vt 0.453125 0.66796875
vt 0.453125 0.671875
vt 0.390625 0.671875
vt 0.390625 0.66796875
vt 0.32421875 0.75
vt 0.32421875 0.6875
vt 0.38671875 0.6875
vt 0.38671875 0.75
vt 0.32421875 0.62109375
vt 0.32421875 0.68359375
vt 0.38671875 0.68359375
vt 0.38671875 0.62109375
vt 0.453125 0.67578125
vt 0.453125 0.6796875
vt 0.390625 0.6796875
vt 0.390625 0.67578125
vt 0.453125 0.69140625
vt 0.453125 0.6953125
vt 0.390625 0.6953125
vt 0.390625 0.69140625
vt 0.25390625 0.55078125
vt 0.25390625 0.58203125
vt 0.25 0.58203125
vt 0.25 0.55078125
vt 0.26171875 0.55078125
vt 0.26171875 0.58203125
vt 0.2578125 0.58203125
vt 0.2578125 0.55078125
vt 0.3671875 0.59375
vt 0.3671875 0.58984375
vt 0.421875 0.58984375
vt 0.421875 0.59375
vt 0.3671875 0.58203125
vt 0.3671875 0.5859375
vt 0.421875 0.5859375
vt 0.421875 0.58203125
vt 0.36328125 0.5859375
vt 0.36328125 0.6171875
vt 0.30859375 0.6171875
vt 0.30859375 0.5859375
vt 0.3046875 0.5859375
vt 0.3046875 0.6171875
vt 0.25 0.6171875
vt 0.25 0.5859375
vt 0.27734375 0.55859375
vt 0.27734375 0.58203125
vt 0.2734375 0.58203125
vt 0.2734375 0.55859375
vt 0.29296875 0.55859375
vt 0.29296875 0.58203125
vt 0.2890625 0.58203125
vt 0.2890625 0.55859375
vt 0.296875 0.58203125
vt 0.296875 0.578125
vt 0.30078125 0.578125
vt 0.30078125 0.58203125
vt 0.3046875 0.578125
vt 0.3046875 0.58203125
vt 0.30859375 0.58203125
vt 0.30859375 0.578125
vt 0.28515625 0.55859375
vt 0.28515625 0.58203125
vt 0.28125 0.58203125
vt 0.28125 0.55859375
vt 0.26953125 0.55859375
vt 0.26953125 0.58203125
vt 0.265625 0.58203125
vt 0.265625 0.55859375
vt 0.32421875 0.578125
vt 0.32421875 0.58203125
vt 0.3203125 0.58203125
vt 0.3203125 0.578125
vt 0.33984375 0.578125
vt 0.33984375 0.58203125
vt 0.3359375 0.58203125
vt 0.3359375 0.578125
vt 0.34375 0.58203125
vt 0.34375 0.578125
vt 0.34765625 0.578125
vt 0.34765625 0.58203125
vt 0.3515625 0.578125
vt 0.3515625 0.58203125
vt 0.35546875 0.58203125
vt 0.35546875 0.578125
vt 0.33203125 0.578125
vt 0.33203125 0.58203125
vt 0.328125 0.58203125
vt 0.328125 0.578125
vt 0.31640625 0.578125
vt 0.31640625 0.58203125
vt 0.3125 0.58203125
vt 0.3125 0.578125
vt 0.37109375 0.57421875
vt 0.37109375 0.578125
vt 0.3671875 0.578125
vt 0.3671875 0.57421875
vt 0.38671875 0.57421875
vt 0.38671875 0.578125
vt 0.3828125 0.578125
vt 0.3828125 0.57421875
vt 0.390625 0.578125
vt 0.390625 0.57421875
vt 0.39453125 0.57421875
vt 0.39453125 0.578125
vt 0.3984375 0.57421875
vt 0.3984375 0.578125
vt 0.40234375 0.578125
vt 0.40234375 0.57421875
vt 0.37890625 0.57421875
vt 0.37890625 0.578125
vt 0.375 0.578125
vt 0.375 0.57421875
vt 0.36328125 0.578125
vt 0.36328125 0.58203125
vt 0.359375 0.58203125
vt 0.359375 0.578125
vt 0.453125 0.65234375
vt 0.453125 0.65625
vt 0.390625 0.65625
vt 0.390625 0.65234375
vt 0.453125 0.63671875
vt 0.453125 0.640625
vt 0.390625 0.640625
vt 0.390625 0.63671875
vt 0 0.6171875
vt 0 0.5546875
vt 0.0625 0.5546875
vt 0.0625 0.6171875
vt 0.06640625 0.5546875
vt 0.06640625 0.6171875
vt 0.12890625 0.6171875
vt 0.12890625 0.5546875
vt 0.453125 0.64453125
vt 0.453125 0.6484375
vt 0.390625 0.6484375
vt 0.390625 0.64453125
vt 0.453125 0.66015625
vt 0.453125 0.6640625
vt 0.390625 0.6640625
vt 0.390625 0.66015625
vn 1 0 0
vn -1 0 0
vn 0 1 0
vn 0 -1 0
vn 0 0 1
vn 0 0 -1
vn 1 0 0
vn -1 0 0
vn 0 1 0
vn 0 -1 0
vn 0 0 1
vn 0 0 -1
vn -1 0 0
vn 1 0 0
vn 0 1 0
vn 0 -1 0
vn 0 0 -1
vn 0 0 1
vn 0 0 -1
vn 0 0 1
vn 0 1 0
vn 0 -1 0
vn 1 0 0
vn -1 0 0
vn 0 0 1
vn 0 0 -1
vn 0 1 0
vn 0 -1 0
vn -1 0 0
vn 1 0 0
vn 1 0 0
vn -1 0 0
vn 0 1 0
vn 0 -1 0
vn 0 0 1
vn 0 0 -1
vn 1 0 0
vn -1 0 0
vn 0 1 0
vn 0 -1 0
vn 0 0 1
vn 0 0 -1
vn 1 0 0
vn -1 0 0
vn 0 1 0
vn 0 -1 0
vn 0 0 1
vn 0 0 -1
vn 1 0 0
vn -1 0 0
vn 0 1 0
vn 0 -1 0
vn 0 0 1
vn 0 0 -1
vn 1 0 0
vn -1 0 0
vn 0 1 0
vn 0 -1 0
vn 0 0 1
vn 0 0 -1
vn 1 0 0
vn -1 0 0
vn 0 1 0
vn 0 -1 0
vn 0 0 1
vn 0 0 -1
vn 1 0 0
vn -1 0 0
vn 0 1 0
vn 0 -1 0
vn 0 0 1
vn 0 0 -1
vn 1 0 0
vn -1 0 0
vn 0 1 0
vn 0 -1 0
vn 0 0 1
vn 0 0 -1
vn 1 0 0
vn -1 0 0
vn 0 1 0
vn 0 -1 0
vn 0 0 1
vn 0 0 -1
usemtl m_b4d686d3-2e54-e96a-0769-a793e8b66952
f 2/1/1 1/2/1 3/3/1 4/4/1
f 7/5/2 5/6/2 6/7/2 8/8/2
f 5/9/3 1/10/3 2/11/3 6/12/3
f 4/13/4 3/14/4 7/15/4 8/16/4
f 3/17/5 1/18/5 5/19/5 7/20/5
f 6/21/6 2/22/6 4/23/6 8/24/6
f 10/25/7 9/26/7 11/27/7 12/28/7
f 15/29/8 13/30/8 14/31/8 16/32/8
f 13/33/9 9/34/9 10/35/9 14/36/9
f 12/37/10 11/38/10 15/39/10 16/40/10
f 11/41/11 9/42/11 13/43/11 15/44/11
f 14/45/12 10/46/12 12/47/12 16/48/12
f 18/49/13 17/50/13 19/51/13 20/52/13
f 23/53/14 21/54/14 22/55/14 24/56/14
f 21/57/15 17/58/15 18/59/15 22/60/15
f 20/61/16 19/62/16 23/63/16 24/64/16
f 19/65/17 17/66/17 21/67/17 23/68/17
f 22/69/18 18/70/18 20/71/18 24/72/18
f 26/73/19 25/74/19 27/75/19 28/76/19
f 31/77/20 29/78/20 30/79/20 32/80/20
f 29/81/21 25/82/21 26/83/21 30/84/21
f 28/85/22 27/86/22 31/87/22 32/88/22
f 27/89/23 25/90/23 29/91/23 31/92/23
f 30/93/24 26/94/24 28/95/24 32/96/24
f 34/97/25 33/98/25 35/99/25 36/100/25
f 39/101/26 37/102/26 38/103/26 40/104/26
f 37/105/27 33/106/27 34/107/27 38/108/27
f 36/109/28 35/110/28 39/111/28 40/112/28
f 35/113/29 33/114/29 37/115/29 39/116/29
f 38/117/30 34/118/30 36/119/30 40/120/30
f 44/121/31 42/122/31 41/123/31 43/124/31
f 47/125/32 45/126/32 46/127/32 48/128/32
f 41/129/33 42/130/33 46/131/33 45/132/33
f 44/133/34 43/134/34 47/135/34 48/136/34
f 43/137/35 41/138/35 45/139/35 47/140/35
f 48/141/36 46/142/36 42/143/36 44/144/36
f 52/145/37 50/146/37 49/147/37 51/148/37
f 55/149/38 53/150/38 54/151/38 56/152/38
f 49/153/39 50/154/39 54/155/39 53/156/39
f 52/157/40 51/158/40 55/159/40 56/160/40
f 51/161/41 49/162/41 53/163/41 55/164/41
f 56/165/42 54/166/42 50/167/42 52/168/42
f 60/169/43 58/170/43 57/171/43 59/172/43
f 63/173/44 61/174/44 62/175/44 64/176/44
f 57/177/45 58/178/45 62/179/45 61/180/45
f 60/181/46 59/182/46 63/183/46 64/184/46
f 59/185/47 57/186/47 61/187/47 63/188/47
f 64/189/48 62/190/48 58/191/48 60/192/48
f 68/193/49 66/194/49 65/195/49 67/196/49
f 71/197/50 69/198/50 70/199/50 72/200/50
f 65/201/51 66/202/51 70/203/51 69/204/51
f 68/205/52 67/206/52 71/207/52 72/208/52
f 67/209/53 65/210/53 69/211/53 71/212/53
f 72/213/54 70/214/54 66/215/54 68/216/54
f 76/217/55 74/218/55 73/219/55 75/220/55
f 79/221/56 77/222/56 78/223/56 80/224/56
f 73/225/57 74/226/57 78/227/57 77/228/57
f 76/229/58 75/230/58 79/231/58 80/232/58
f 75/233/59 73/234/59 77/235/59 79/236/59
f 80/237/60 78/238/60 74/239/60 76/240/60
f 84/241/61 82/242/61 81/243/61 83/244/61
f 87/245/62 85/246/62 86/247/62 88/248/62
f 81/249/63 82/250/63 86/251/63 85/252/63
f 84/253/64 83/254/64 87/255/64 88/256/64
f 83/257/65 81/258/65 85/259/65 87/260/65
f 88/261/66 86/262/66 82/263/66 84/264/66
f 92/265/67 90/266/67 89/267/67 91/268/67
f 95/269/68 93/270/68 94/271/68 96/272/68
f 89/273/69 90/274/69 94/275/69 93/276/69
f 92/277/70 91/278/70 95/279/70 96/280/70
f 91/281/71 89/282/71 93/283/71 95/284/71
f 96/285/72 94/286/72 90/287/72 92/288/72
f 100/289/73 98/290/73 97/291/73 99/292/73
f 103/293/74 101/294/74 102/295/74 104/296/74
f 97/297/75 98/298/75 102/299/75 101/300/75
f 100/301/76 99/302/76 103/303/76 104/304/76
f 99/305/77 97/306/77 101/307/77 103/308/77
f 104/309/78 102/310/78 98/311/78 100/312/78
f 108/313/79 106/314/79 105/315/79 107/316/79
f 111/317/80 109/318/80 110/319/80 112/320/80
f 105/321/81 106/322/81 110/323/81 109/324/81
f 108/325/82 107/326/82 111/327/82 112/328/82
f 107/329/83 105/330/83 109/331/83 111/332/83
f 112/333/84 110/334/84 106/335/84 108/336/84