# Made in Blockbench 5.1.3
mtllib silo_hatch.mtl

o Frame
v -1 0 -1
v 2 0 -1
v -0.5 0.5 -1
v 3 0.25 -2
v 2.75 1 2.75
v 3 0.25 3
v 3 0 3
v -2 0.25 3
v -2 0 3
v 3 0 -2
v -2 0.25 -2
v -2 0 -2
v 2 0 2
v -1.75 1 -1.75
v 2.75 1 -1.75
v -1.75 1 2.75
v -1 0 2
v -1 0.75 2
v 2 0.75 2
v -1 0.75 -1
v 2.25 0.75 2.25
v 2.25 0.75 -1.25
v 2 0.75 -1
v -0.5 0.75 -1.25
v -0.5 0.75 -1
v -1.25 0.75 2.25
v 2.25 1 2.25
v 2.25 1 -1.25
v -1.25 0.75 -1.25
v -1.25 1 2.25
v -0.5 0.5 -1.5
v 1.5 1 -1.5
v -0.5 1 -1.5
v 1.5 0.5 -1.5
v -0.5 1 -1.25
v 1.5 1 -1.25
v 1.5 0.75 -1.25
v 1.5 0.75 -1
v 1.5 0.5 -1
v -1.25 1 -1.25
vt 0.5390625 0.8125
vt 0.7265625 0.8125
vt 0.5703125 0.84375
vt 0.8203125 0.434964453125
vt 0.5234375 0.484375
vt 0.5078125 0.434964453125
vt 0.8203125 0.489651953125
vt 0.5078125 0.505276953125
vt 0.5078125 0.489651953125
vt 0.8203125 0.419339453125
vt 0.5078125 0.434964453125
vt 0.5078125 0.419339453125
vt 0.8515625 0.934964453125
vt 0.5390625 0.950589453125
vt 0.5390625 0.934964453125
vt 0.8515625 0.864651953125
vt 0.5390625 0.880276953125
vt 0.5390625 0.864651953125
vt 0 1
vt 0.25 0.9375
vt 0.3125 1
vt 0.8515625 0.950589453125
vt 0.5546875 1
vt 0.5390625 0.950589453125
vt 0.8515625 0.880276953125
vt 0.5546875 0.9296875
vt 0.5390625 0.880276953125
vt 0.8203125 0.505276953125
vt 0.5234375 0.5546875
vt 0.5078125 0.505276953125
vt 0 0.6875
vt 0.0625 0.9375
vt 0 1
vt 0.7265625 0.80859375
vt 0.5390625 0.76171875
vt 0.7265625 0.76171875
vt 0.7265625 0.7578125
vt 0.5390625 0.7109375
vt 0.7265625 0.7109375
vt 0.7265625 0.70703125
vt 0.5390625 0.66015625
vt 0.7265625 0.66015625
vt 0.3125 1
vt 0.25 0.75
vt 0.3125 0.6875
vt 0.3125 0.6875
vt 0.0625 0.75
vt 0 0.6875
vt 0.30078125 0.3515625
vt 0.50390625 0.3359375
vt 0.48828125 0.3515625
vt 0.48828125 0.3515625
vt 0.50390625 0.5546875
vt 0.48828125 0.5390625
vt 0.33203125 0.5546875
vt 0.30078125 0.5390625
vt 0.33203125 0.5390625
vt 0.30078125 0.5390625
vt 0.28515625 0.3359375
vt 0.30078125 0.3515625
vt 0.7578125 0.5625
vt 0.5390625 0.578125
vt 0.5390625 0.5625
vt 0.7265625 0.3984375
vt 0.5078125 0.4140625
vt 0.5078125 0.3984375
vt 0.21875 0.3828125
vt 0 0.3984375
vt 0 0.3828125
vt 0.25 0.43359375
vt 0 0.40234375
vt 0.28125 0.40234375
vt 0.25 0.65234375
vt 0.28125 0.40234375
vt 0.28125 0.68359375
vt 0.0703125 0.828125
vt 0.1953125 0.859375
vt 0.0703125 0.859375
vt 0.03125 0.43359375
vt 0 0.68359375
vt 0 0.40234375
vt 0.0703125 0.79296875
vt 0.1953125 0.82421875
vt 0.0703125 0.82421875
vt 0.23046875 0.9296875
vt 0.21484375 0.9296875
vt 0.21484375 0.9140625
vt 0.24609375 0.859375
vt 0.19921875 0.84375
vt 0.24609375 0.84375
vt 0.24609375 0.82421875
vt 0.19921875 0.83984375
vt 0.19921875 0.82421875
vt 0 0.68359375
vt 0.203125 0.66796875
vt 0.28125 0.68359375
vt 0.48828125 0.5390625
vt 0.45703125 0.5546875
vt 0.45703125 0.5390625
vt 0.21484375 0.87890625
vt 0.19921875 0.89453125
vt 0.19921875 0.86328125
vt 0.5703125 0.859375
vt 0.5390625 0.859375
vt 0.5703125 0.84375
vt 0.5390625 0.859375
vt 0.5390625 0.8125
vt 0.5703125 0.84375
vt 0.7265625 0.8125
vt 0.7265625 0.859375
vt 0.6953125 0.84375
vt 0.7265625 0.859375
vt 0.6953125 0.859375
vt 0.6953125 0.84375
vt 0.7265625 0.8125
vt 0.6953125 0.84375
vt 0.5703125 0.84375
vt 0.8203125 0.434964453125
vt 0.8046875 0.484375
vt 0.5234375 0.484375
vt 0.8203125 0.489651953125
vt 0.8203125 0.505276953125
vt 0.5078125 0.505276953125
vt 0.8203125 0.419339453125
vt 0.8203125 0.434964453125
vt 0.5078125 0.434964453125
vt 0.8515625 0.934964453125
vt 0.8515625 0.950589453125
vt 0.5390625 0.950589453125
vt 0.8515625 0.864651953125
vt 0.8515625 0.880276953125
vt 0.5390625 0.880276953125
vt 0 1
vt 0.0625 0.9375
vt 0.25 0.9375
vt 0.8515625 0.950589453125
vt 0.8359375 1
vt 0.5546875 1
vt 0.8515625 0.880276953125
vt 0.8359375 0.9296875
vt 0.5546875 0.9296875
vt 0.8203125 0.505276953125
vt 0.8046875 0.5546875
vt 0.5234375 0.5546875
vt 0 0.6875
vt 0.0625 0.75
vt 0.0625 0.9375
vt 0.7265625 0.80859375
vt 0.5390625 0.80859375
vt 0.5390625 0.76171875
vt 0.7265625 0.7578125
vt 0.5390625 0.7578125
vt 0.5390625 0.7109375
vt 0.7265625 0.70703125
vt 0.5390625 0.70703125
vt 0.5390625 0.66015625
vt 0.3125 1
vt 0.25 0.9375
vt 0.25 0.75
vt 0.3125 0.6875
vt 0.25 0.75
vt 0.0625 0.75
vt 0.30078125 0.3515625
vt 0.28515625 0.3359375
vt 0.50390625 0.3359375
vt 0.48828125 0.3515625
vt 0.50390625 0.3359375
vt 0.50390625 0.5546875
vt 0.33203125 0.5546875
vt 0.28515625 0.5546875
vt 0.30078125 0.5390625
vt 0.30078125 0.5390625
vt 0.28515625 0.5546875
vt 0.28515625 0.3359375
vt 0.7578125 0.5625
vt 0.7578125 0.578125
vt 0.5390625 0.578125
vt 0.7265625 0.3984375
vt 0.7265625 0.4140625
vt 0.5078125 0.4140625
vt 0.21875 0.3828125
vt 0.21875 0.3984375
vt 0 0.3984375
vt 0.25 0.43359375
vt 0.03125 0.43359375
vt 0 0.40234375
vt 0.25 0.65234375
vt 0.25 0.43359375
vt 0.28125 0.40234375
vt 0.0703125 0.828125
vt 0.1953125 0.828125
vt 0.1953125 0.859375
vt 0.03125 0.43359375
vt 0.03125 0.65234375
vt 0 0.68359375
vt 0.0703125 0.79296875
vt 0.1953125 0.79296875
vt 0.1953125 0.82421875
vt 0.19921875 0.9140625
vt 0.19921875 0.8984375
vt 0.21484375 0.9140625
vt 0.19921875 0.8984375
vt 0.23046875 0.8984375
vt 0.21484375 0.9140625
vt 0.23046875 0.8984375
vt 0.23046875 0.9296875
vt 0.21484375 0.9140625
vt 0.24609375 0.859375
vt 0.19921875 0.859375
vt 0.19921875 0.84375
vt 0.24609375 0.82421875
vt 0.24609375 0.83984375
vt 0.19921875 0.83984375
vt 0 0.68359375
vt 0.03125 0.65234375
vt 0.078125 0.66796875
vt 0.03125 0.65234375
vt 0.078125 0.65234375
vt 0.078125 0.66796875
vt 0.203125 0.65234375
vt 0.25 0.65234375
vt 0.203125 0.66796875
vt 0.25 0.65234375
vt 0.28125 0.68359375
vt 0.203125 0.66796875
vt 0 0.68359375
vt 0.078125 0.66796875
vt 0.203125 0.66796875
vt 0.48828125 0.5390625
vt 0.50390625 0.5546875
vt 0.45703125 0.5546875
vt 0.23046875 0.86328125
vt 0.23046875 0.87890625
vt 0.21484375 0.87890625
vt 0.21484375 0.87890625
vt 0.21484375 0.89453125
vt 0.19921875 0.89453125
vt 0.19921875 0.86328125
vt 0.23046875 0.86328125
vt 0.21484375 0.87890625
vn 0 0 1
vn 0.948683298050514 0.316227766016838 0
vn 0 0 1
vn 1 0 0
vn -1 0 0
vn 0 0 -1
vn 0 -1 0
vn -0.948683298050514 0.316227766016838 0
vn 0 0.316227766016838 -0.948683298050514
vn 0 0.316227766016838 0.948683298050514
vn 0 -1 0
vn 0 0 -1
vn -1 0 0
vn 1 0 0
vn 0 -1 0
vn 0 -1 0
vn 0 1 0
vn 0 1 0
vn 0 1 0
vn 0 1 0
vn 0 0 -1
vn -1 0 0
vn 1 0 0
vn 0 1 0
vn 0 1 0
vn 0 0 1
vn 0 1 0
vn 0 1 0
vn 1 0 0
vn 0 0 1
vn 0 0 1
vn 0 1 0
vn 0 1 0
vn -1 0 0
vn 0 0 1
vn 0 0 1
vn 0 0 1
vn 0 0 1
vn 0 0 1
vn 0.948683298050514 0.316227766016838 0
vn 0 0 1
vn 1 0 0
vn -1 0 0
vn 0 0 -1
vn 0 -1 0
vn -0.948683298050514 0.316227766016838 0
vn 0 0.316227766016838 -0.948683298050514
vn 0 0.316227766016838 0.948683298050514
vn 0 -1 0
vn 0 0 -1
vn -1 0 0
vn 1 0 0
vn 0 -1 0
vn 0 -1 0
vn 0 1 0
vn 0 1 0
vn 0 1 0
vn 0 1 0
vn 0 0 -1
vn -1 0 0
vn 1 0 0
vn 0 1 0
vn 0 1 0
vn 0 0 1
vn 0 1 0
vn 0 1 0
vn 1 0 0
vn 1 0 0
vn 1 0 0
vn 0 0 1
vn 0 0 1
vn 0 1 0
vn 0 1 0
vn 0 1 0
vn 0 1 0
vn 0 1 0
vn 0 1 0
vn -1 0 0
vn -1 0 0
vn -1 0 0
usemtl m_9d2af439-2b1e-c5e9-c7b6-a6263d9b4336
f 1/1/1 2/2/1 3/3/1
f 4/4/2 5/5/2 6/6/2
f 7/7/3 8/8/3 9/9/3
f 10/10/4 6/11/4 7/12/4
f 9/13/5 11/14/5 12/15/5
f 12/16/6 4/17/6 10/18/6
f 9/19/7 13/20/7 7/21/7
f 8/22/8 14/23/8 11/24/8
f 11/25/9 15/26/9 4/27/9
f 6/28/10 16/29/10 8/30/10
f 12/31/11 17/32/11 9/33/11
f 18/34/12 13/35/12 17/36/12
f 19/37/13 2/38/13 13/39/13
f 20/40/14 17/41/14 1/42/14
f 7/43/15 2/44/15 10/45/15
f 10/46/16 1/47/16 12/48/16
f 18/49/17 21/50/17 19/51/17
f 19/52/18 22/53/18 23/54/18
f 24/55/19 20/56/19 25/57/19
f 20/58/20 26/59/20 18/60/20
f 26/61/21 27/62/21 21/63/21
f 21/64/22 28/65/22 22/66/22
f 29/67/23 30/68/23 26/69/23
f 27/70/24 16/71/24 5/72/24
f 28/73/25 5/74/25 15/75/25
f 31/76/26 32/77/26 33/78/26
f 30/79/27 14/80/27 16/81/27
f 3/82/28 34/83/28 31/84/28
f 33/85/29 35/86/29 24/87/29
f 35/88/30 29/89/30 24/90/30
f 22/91/31 36/92/31 37/93/31
f 14/94/32 32/95/32 15/96/32
f 23/97/33 37/98/33 38/99/33
f 37/100/34 32/101/34 34/102/34
f 25/103/35 20/104/35 3/105/35
f 20/106/36 1/107/36 3/108/36
f 2/109/37 23/110/37 39/111/37
f 23/112/38 38/113/38 39/114/38
f 2/115/39 39/116/39 3/117/39
f 4/118/40 15/119/40 5/120/40
f 7/121/41 6/122/41 8/123/41
f 10/124/42 4/125/42 6/126/42
f 9/127/43 8/128/43 11/129/43
f 12/130/44 11/131/44 4/132/44
f 9/133/45 17/134/45 13/135/45
f 8/136/46 16/137/46 14/138/46
f 11/139/47 14/140/47 15/141/47
f 6/142/48 5/143/48 16/144/48
f 12/145/49 1/146/49 17/147/49
f 18/148/50 19/149/50 13/150/50
f 19/151/51 23/152/51 2/153/51
f 20/154/52 18/155/52 17/156/52
f 7/157/53 13/158/53 2/159/53
f 10/160/54 2/161/54 1/162/54
f 18/163/55 26/164/55 21/165/55
f 19/166/56 21/167/56 22/168/56
f 24/169/57 29/170/57 20/171/57
f 20/172/58 29/173/58 26/174/58
f 26/175/59 30/176/59 27/177/59
f 21/178/60 27/179/60 28/180/60
f 29/181/61 40/182/61 30/183/61
f 27/184/62 30/185/62 16/186/62
f 28/187/63 27/188/63 5/189/63
f 31/190/64 34/191/64 32/192/64
f 30/193/65 40/194/65 14/195/65
f 3/196/66 39/197/66 34/198/66
f 25/199/67 3/200/67 24/201/67
f 3/202/68 31/203/68 24/204/68
f 31/205/69 33/206/69 24/207/69
f 35/208/70 40/209/70 29/210/70
f 22/211/71 28/212/71 36/213/71
f 14/214/72 40/215/72 33/216/72
f 40/217/73 35/218/73 33/219/73
f 36/220/74 28/221/74 32/222/74
f 28/223/75 15/224/75 32/225/75
f 14/226/76 33/227/76 32/228/76
f 23/229/77 22/230/77 37/231/77
f 39/232/78 38/233/78 37/234/78
f 37/235/79 36/236/79 32/237/79
f 34/238/80 39/239/80 37/240/80