# Made in Blockbench 5.1.3
mtllib silo_hatch_door.mtl

o Hatch
v 2.25 0.75 -1.245833333333333
v -1.0000000000000002 0.75 -0.9958333333333325
v -1.2500000000000002 0.75 -1.2458333333333325
v -1.2500000000000002 1 -1.2458333333333325
v 2.25 1 2.2541666666666664
v 2.25 1 -1.245833333333333
v 2.25 0.75 2.2541666666666664
v -1.2499999999999998 1 2.2541666666666673
v -1.2499999999999998 0.75 2.2541666666666673
v -0.9999999999999998 0.75 2.0041666666666673
v 2 0.75 2.004166666666667
v 1.9999999999999998 0.75 -0.9958333333333329
v -0.9999999999999998 0.5 2.0041666666666673
v 1.9999999999999998 0.5 -0.9958333333333329
v 2 0.5 2.004166666666667
v -1.0000000000000002 0.5 -0.9958333333333325
v 1.5000000000000002 0.75 2.004166666666667
v -0.4999999999999998 0.75 2.504166666666667
v 1.5000000000000002 0.75 2.504166666666667
v -0.4999999999999998 0.5 2.504166666666667
v 1.5000000000000002 0.5 2.004166666666667
v 1.5000000000000002 0.5 2.504166666666667
v -0.4999999999999998 0.75 2.0041666666666673
v -0.4999999999999998 0.5 2.0041666666666673
vt 0.31640625 1
vt 0.51953125 0.984375
vt 0.53515625 1
vt 0.53515625 0.55859375
vt 0.31640625 0.77734375
vt 0.31640625 0.55859375
vt 0.7578125 0.640625
vt 0.5390625 0.65625
vt 0.5390625 0.640625
vt 0.7578125 0.62109375
vt 0.5390625 0.63671875
vt 0.5390625 0.62109375
vt 0.7578125 0.6015625
vt 0.5390625 0.6171875
vt 0.5390625 0.6015625
vt 0.7578125 0.58203125
vt 0.5390625 0.59765625
vt 0.5390625 0.58203125
vt 0.53515625 1
vt 0.51953125 0.796875
vt 0.53515625 0.78125
vt 0.53515625 0.78125
vt 0.33203125 0.796875
vt 0.31640625 0.78125
vt 0.31640625 0.78125
vt 0.33203125 0.984375
vt 0.31640625 1
vt 0.0390625 0.453125
vt 0.2265625 0.4375
vt 0.2265625 0.453125
vt 0.5078125 0.39453125
vt 0.6953125 0.37890625
vt 0.6953125 0.39453125
vt 0 0.37890625
vt 0.1875 0.36328125
vt 0.1875 0.37890625
vt 0.5078125 0.375
vt 0.6953125 0.359375
vt 0.6953125 0.375
vt 0.2265625 0.45703125
vt 0.0390625 0.64453125
vt 0.0390625 0.45703125
vt 0.0703125 0.8984375
vt 0.1953125 0.9296875
vt 0.0703125 0.9296875
vt 0.1953125 0.86328125
vt 0.0703125 0.89453125
vt 0.0703125 0.86328125
vt 0.19921875 0.8203125
vt 0.23046875 0.8046875
vt 0.23046875 0.8203125
vt 0.0703125 0.7890625
vt 0.1953125 0.7734375
vt 0.1953125 0.7890625
vt 0.19921875 0.80078125
vt 0.23046875 0.78515625
vt 0.23046875 0.80078125
vt 0.31640625 1
vt 0.33203125 0.984375
vt 0.51953125 0.984375
vt 0.53515625 0.55859375
vt 0.53515625 0.77734375
vt 0.31640625 0.77734375
vt 0.7578125 0.640625
vt 0.7578125 0.65625
vt 0.5390625 0.65625
vt 0.7578125 0.62109375
vt 0.7578125 0.63671875
vt 0.5390625 0.63671875
vt 0.7578125 0.6015625
vt 0.7578125 0.6171875
vt 0.5390625 0.6171875
vt 0.7578125 0.58203125
vt 0.7578125 0.59765625
vt 0.5390625 0.59765625
vt 0.53515625 1
vt 0.51953125 0.984375
vt 0.51953125 0.796875
vt 0.53515625 0.78125
vt 0.51953125 0.796875
vt 0.33203125 0.796875
vt 0.31640625 0.78125
vt 0.33203125 0.796875
vt 0.33203125 0.984375
vt 0.0390625 0.453125
vt 0.0390625 0.4375
vt 0.2265625 0.4375
vt 0.5078125 0.39453125
vt 0.5078125 0.37890625
vt 0.6953125 0.37890625
vt 0 0.37890625
vt 0 0.36328125
vt 0.1875 0.36328125
vt 0.5078125 0.375
vt 0.5078125 0.359375
vt 0.6953125 0.359375
vt 0.2265625 0.45703125
vt 0.2265625 0.64453125
vt 0.0390625 0.64453125
vt 0.0703125 0.8984375
vt 0.1953125 0.8984375
vt 0.1953125 0.9296875
vt 0.1953125 0.86328125
vt 0.1953125 0.89453125
vt 0.0703125 0.89453125
vt 0.19921875 0.8203125
vt 0.19921875 0.8046875
vt 0.23046875 0.8046875
vt 0.0703125 0.7890625
vt 0.0703125 0.7734375
vt 0.1953125 0.7734375
vt 0.19921875 0.80078125
vt 0.19921875 0.78515625
vt 0.23046875 0.78515625
vn 0 -1 0
vn 0 1 0
vn 1.2246467991473532e-16 0 1
vn -1.2246467991473532e-16 0 -1
vn -1 0 1.2246467991473532e-16
vn 1 0 -1.2246467991473532e-16
vn 0 -1 0
vn 0 -1 0
vn 0 -1 0
vn -1 0 1.2246467991473532e-16
vn 1 0 -1.2246467991473532e-16
vn 1.2246467991473532e-16 0 1
vn -1.2246467991473532e-16 0 -1
vn 0 -1 0
vn 0 1 0
vn 0 -1 0
vn -1 0 1.2246467991473532e-16
vn 1.2246467991473532e-16 0 1
vn 1 0 -1.2246467991473532e-16
vn 0 -1 0
vn 0 1 0
vn 1.2246467991473532e-16 0 1
vn -1.2246467991473532e-16 0 -1
vn -1 0 1.2246467991473532e-16
vn 1 0 -1.2246467991473532e-16
vn 0 -1 0
vn 0 -1 0
vn 0 -1 0
vn -1 0 1.2246467991473532e-16
vn 1 0 -1.2246467991473532e-16
vn 1.2246467991473532e-16 0 1
vn -1.2246467991473532e-16 0 -1
vn 0 -1 0
vn 0 1 0
vn 0 -1 0
vn -1 0 1.2246467991473532e-16
vn 1.2246467991473532e-16 0 1
vn 1 0 -1.2246467991473532e-16
usemtl m_c82a262b-172e-f526-3e9f-5f5a4bbb7b90
f 1/1/1 2/2/1 3/3/1
f 4/4/2 5/5/2 6/6/2
f 7/7/3 8/8/3 9/9/3
f 3/10/4 6/11/4 1/12/4
f 9/13/5 4/14/5 3/15/5
f 1/16/6 5/17/6 7/18/6
f 3/19/7 10/20/7 9/21/7
f 9/22/8 11/23/8 7/24/8
f 7/25/9 12/26/9 1/27/9
f 2/28/10 13/29/10 10/30/10
f 11/31/11 14/32/11 12/33/11
f 10/34/12 15/35/12 11/36/12
f 12/37/13 16/38/13 2/39/13
f 13/40/14 14/41/14 15/42/14
f 17/43/15 18/44/15 19/45/15
f 20/46/16 21/47/16 22/48/16
f 23/49/17 20/50/17 18/51/17
f 18/52/18 22/53/18 19/54/18
f 19/55/19 21/56/19 17/57/19
f 1/58/20 12/59/20 2/60/20
f 4/61/21 8/62/21 5/63/21
f 7/64/22 5/65/22 8/66/22
f 3/67/23 4/68/23 6/69/23
f 9/70/24 8/71/24 4/72/24
f 1/73/25 6/74/25 5/75/25
f 3/76/26 2/77/26 10/78/26
f 9/79/27 10/80/27 11/81/27
f 7/82/28 11/83/28 12/84/28
f 2/85/29 16/86/29 13/87/29
f 11/88/30 15/89/30 14/90/30
f 10/91/31 13/92/31 15/93/31
f 12/94/32 14/95/32 16/96/32
f 13/97/33 16/98/33 14/99/33
f 17/100/34 23/101/34 18/102/34
f 20/103/35 24/104/35 21/105/35
f 23/106/36 24/107/36 20/108/36
f 18/109/37 20/110/37 22/111/37
f 19/112/38 22/113/38 21/114/38