# Made in Blockbench 5.1.3
mtllib steel_barrel.mtl

o Barrel
v 0.875 1 0.875
v 0.875 0 0.875
v 0.875 0 0.125
v 0.125 1 0.875
v 0.125 0 0.875
v 0.125 1 0.125
v 0.125 0 0.125
v 0.875 1 0.125
vt 0 0.75
vt 0 0.41666666666666663
vt 0.25 0.41666666666666663
vt 0.75 0.75
vt 0.75 0.41666666666666663
vt 1 0.41666666666666663
vt 0.25 0.75
vt 0.25 0.41666666666666663
vt 0.5 0.41666666666666663
vt 0.5 0.75
vt 0.5 0.41666666666666663
vt 0.75 0.41666666666666663
vt 0.75 1
vt 0.5 1
vt 0.5 0.75
vt 0.25 0.75
vt 0.5 0.75
vt 0.5 1
vt 0.25 0.75
vt 0 0.75
vt 0.25 0.41666666666666663
vt 1 0.75
vt 0.75 0.75
vt 1 0.41666666666666663
vt 0.5 0.75
vt 0.25 0.75
vt 0.5 0.41666666666666663
vt 0.75 0.75
vt 0.5 0.75
vt 0.75 0.41666666666666663
vt 0.75 0.75
vt 0.75 1
vt 0.5 0.75
vt 0.25 1
vt 0.25 0.75
vt 0.5 1
vn 1 0 0
vn 0 0 1
vn -1 0 0
vn 0 0 -1
vn 0 -1 0
vn 0 1 0
vn 1 0 0
vn 0 0 1
vn -1 0 0
vn 0 0 -1
vn 0 -1 0
vn 0 1 0
usemtl m_0d38ee2a-d3a9-0be3-f8f2-2a6ca2866ab8
f 1/1/1 2/2/1 3/3/1
f 4/4/2 5/5/2 2/6/2
f 6/7/3 7/8/3 5/9/3
f 8/10/4 3/11/4 7/12/4
f 2/13/5 5/14/5 7/15/5
f 4/16/6 1/17/6 8/18/6
f 8/19/7 1/20/7 3/21/7
f 1/22/8 4/23/8 2/24/8
f 4/25/9 6/26/9 5/27/9
f 6/28/10 8/29/10 7/30/10
f 3/31/11 2/32/11 7/33/11
f 6/34/12 4/35/12 8/36/12