# Made in Blockbench 5.1.3
mtllib steel_pipe.mtl

o Top
v 0.765165 1 0.23483500000000002
v 0.5 1 0.5
v 0.875 1 0.5
v 0.5 0 0.125
v 0.5 0 0.5
v 0.23483500000000002 0 0.23483500000000002
v 0.5 1 0.875
v 0.23483500000000002 1 0.765165
v 0.125 1 0.5
v 0.23483500000000002 1 0.23483500000000002
v 0.765165 1 0.765165
v 0.5 1 0.125
v 0.125 0 0.5
v 0.5 0 0.875
v 0.765165 0 0.765165
v 0.875 0 0.5
v 0.765165 0 0.23483500000000002
v 0.23483500000000002 0 0.765165
v 0.5 1 0.125
v 0.765165 0 0.23483500000000002
v 0.5 0 0.125
v 0.765165 1 0.23483500000000002
v 0.875 0 0.5
v 0.875 1 0.5
v 0.765165 0 0.765165
v 0.765165 1 0.765165
v 0.5 0 0.875
v 0.5 1 0.875
v 0.23483500000000002 0 0.765165
v 0.23483500000000002 1 0.765165
v 0.125 0 0.5
v 0.125 1 0.5
v 0.23483500000000002 0 0.23483500000000002
v 0.23483500000000002 1 0.23483500000000002
vt 0.5 0.125
vt 0.5 0.5
vt 0.75 0.25
vt 0.25 0.25
vt 0.5 0.5
vt 0.5 0.125
vt 0.75 0.75
vt 0.5 0.5
vt 0.5 0.875
vt 0.25 0.75
vt 0.5 0.5
vt 0.125 0.5
vt 0.75 0.25
vt 0.5 0.5
vt 0.875 0.5
vt 0.5 0.875
vt 0.5 0.5
vt 0.25 0.75
vt 0.5 0.5
vt 0.5 0.125
vt 0.25 0.25
vt 0.875 0.5
vt 0.5 0.5
vt 0.75 0.75
vt 0.125 0.5
vt 0.5 0.5
vt 0.25 0.25
vt 0.5 0.125
vt 0.5 0.5
vt 0.75 0.25
vt 0.75 0.75
vt 0.5 0.5
vt 0.5 0.875
vt 0.5 0.5
vt 0.25 0.75
vt 0.5 0.875
vt 0.25 0.75
vt 0.5 0.5
vt 0.125 0.5
vt 0.75 0.25
vt 0.5 0.5
vt 0.875 0.5
vt 0.125 0.5
vt 0.5 0.5
vt 0.25 0.25
vt 0.875 0.5
vt 0.5 0.5
vt 0.75 0.75
vt 0.5 1
vt 0.1875 0
vt 0.5 0
vt 0.8125 1
vt 0.5 0
vt 0.8125 0
vt 0.5 1
vt 0.1875 0
vt 0.5 0
vt 0.8125 1
vt 0.5 0
vt 0.8125 0
vt 0.5 1
vt 0.1875 0
vt 0.5 0
vt 0.8125 1
vt 0.5 0
vt 0.8125 0
vt 0.5 1
vt 0.1875 0
vt 0.5 0
vt 0.8125 1
vt 0.5 0
vt 0.8125 0
vt 0.5 1
vt 0.1875 1
vt 0.1875 0
vt 0.8125 1
vt 0.5 1
vt 0.5 0
vt 0.5 1
vt 0.1875 1
vt 0.1875 0
vt 0.8125 1
vt 0.5 1
vt 0.5 0
vt 0.5 1
vt 0.1875 1
vt 0.1875 0
vt 0.8125 1
vt 0.5 1
vt 0.5 0
vt 0.5 1
vt 0.1875 1
vt 0.1875 0
vt 0.8125 1
vt 0.5 1
vt 0.5 0
vn 0 1 0
vn 0 -1 0
vn 0 1 0
vn 0 1 0
vn 0 1 0
vn 0 1 0
vn 0 1 0
vn 0 1 0
vn 0 1 0
vn 0 -1 0
vn 0 -1 0
vn 0 -1 0
vn 0 -1 0
vn 0 -1 0
vn 0 -1 0
vn 0 -1 0
vn 0.3826836129813887 0 -0.9238794576975455
vn 0.9238794576975455 0 -0.3826836129813887
vn 0.9238794576975455 0 0.3826836129813887
vn 0.3826836129813887 0 0.9238794576975455
vn -0.3826836129813887 0 0.9238794576975455
vn -0.9238794576975455 0 0.3826836129813887
vn -0.9238794576975455 0 -0.3826836129813887
vn -0.3826836129813887 0 -0.9238794576975455
vn 0.3826836129813887 0 -0.9238794576975455
vn 0.9238794576975455 0 -0.3826836129813887
vn 0.9238794576975455 0 0.3826836129813887
vn 0.3826836129813887 0 0.9238794576975455
vn -0.3826836129813887 0 0.9238794576975455
vn -0.9238794576975455 0 0.3826836129813887
vn -0.9238794576975455 0 -0.3826836129813887
vn -0.3826836129813887 0 -0.9238794576975455
usemtl m_ae432dd0-0053-d146-1049-4c65e5b5316e
f 1/1/1 2/2/1 3/3/1
f 4/4/2 5/5/2 6/6/2
f 7/7/3 2/8/3 8/9/3
f 9/10/4 2/11/4 10/12/4
f 3/13/5 2/14/5 11/15/5
f 8/16/6 2/17/6 9/18/6
f 2/19/7 1/20/7 12/21/7
f 11/22/8 2/23/8 7/24/8
f 10/25/9 2/26/9 12/27/9
f 6/28/10 5/29/10 13/30/10
f 14/31/11 5/32/11 15/33/11
f 5/34/12 16/35/12 15/36/12
f 16/37/13 5/38/13 17/39/13
f 13/40/14 5/41/14 18/42/14
f 17/43/15 5/44/15 4/45/15
f 18/46/16 5/47/16 14/48/16
usemtl m_ccf3d82b-e491-9db8-deff-5bfb7bd5d19b
f 19/49/17 20/50/17 21/51/17
f 22/52/18 23/53/18 20/54/18
f 24/55/19 25/56/19 23/57/19
f 26/58/20 27/59/20 25/60/20
f 28/61/21 29/62/21 27/63/21
f 30/64/22 31/65/22 29/66/22
f 32/67/23 33/68/23 31/69/23
f 34/70/24 21/71/24 33/72/24
f 19/73/25 22/74/25 20/75/25
f 22/76/26 24/77/26 23/78/26
f 24/79/27 26/80/27 25/81/27
f 26/82/28 28/83/28 27/84/28
f 28/85/29 30/86/29 29/87/29
f 30/88/30 32/89/30 31/90/30
f 32/91/31 34/92/31 33/93/31
f 34/94/32 19/95/32 21/96/32