# Made in Blockbench 5.1.1
mtllib tape_recorder.mtl

o Cube_Cube.001
v -0.017045454545454697 1 0.9829545454545452
v -0.017045454545454697 0 0.9829545454545452
v 0.9829545454545452 0 0.9829545454545454
v -0.017045454545454586 1 0.23295454545454533
v -0.017045454545454586 0 0.23295454545454533
v 0.9829545454545454 1 0.23295454545454555
v 0.9829545454545454 0 0.23295454545454555
v 0.9829545454545452 1 0.9829545454545454
v 0.2954545454545454 0.4375 0.10795454545454541
v 0.04545454545454547 0.5625 0.10795454545454536
v 0.17045454545454547 0.8125 0.10795454545454536
v 0.7954545454545454 0.4375 0.10795454545454553
v 0.5454545454545454 0.5625 0.10795454545454547
v 0.6704545454545454 0.8125 0.10795454545454547
v 0.5454545454545454 0.5625 0.23295454545454547
v 0.6704545454545454 0.4375 0.10795454545454547
v 0.6704545454545454 0.8125 0.23295454545454547
v 0.5454545454545454 0.6875 0.10795454545454547
v 0.9204545454545454 0.5625 0.23295454545454553
v 0.9204545454545454 0.5625 0.10795454545454553
v 0.9204545454545454 0.6875 0.10795454545454553
v 0.7954545454545454 0.8125 0.23295454545454553
v 0.7954545454545454 0.8125 0.10795454545454553
v 0.7954545454545454 0.4375 0.23295454545454553
v 0.5454545454545454 0.6875 0.23295454545454547
v 0.9204545454545454 0.6875 0.23295454545454553
v 0.6704545454545454 0.4375 0.23295454545454547
v 0.045454545454545414 0.5625 0.23295454545454536
v 0.17045454545454547 0.4375 0.10795454545454536
v 0.17045454545454541 0.8125 0.23295454545454536
v 0.04545454545454547 0.6875 0.10795454545454536
v 0.4204545454545454 0.5625 0.23295454545454541
v 0.42045454545454547 0.5625 0.10795454545454541
v 0.42045454545454547 0.6875 0.10795454545454541
v 0.2954545454545454 0.8125 0.23295454545454541
v 0.2954545454545454 0.8125 0.10795454545454541
v 0.2954545454545454 0.4375 0.23295454545454541
v 0.045454545454545414 0.6875 0.23295454545454536
v 0.4204545454545454 0.6875 0.23295454545454541
v 0.17045454545454541 0.4375 0.23295454545454536
v 0.2954545454545454 0.8125 0.23295454545454541
v 0.6704545454545454 0.8125 0.23295454545454547
v 0.6704545454545454 0.8125 0.10795454545454547
v 0.2954545454545454 0.8125 0.10795454545454541
vt 0 1
vt 0 0.75
vt 0.25 0.75
vt 0.265625 1
vt 0.265625 0.75
vt 0.453125 0.75
vt 0 0.734375
vt 0 0.484375
vt 0.25 0.484375
vt 0.265625 0.734375
vt 0.265625 0.484375
vt 0.453125 0.484375
vt 0.46875 0.75
vt 0.65625 0.75
vt 0.65625 1
vt 0.65625 0.734375
vt 0.46875 0.734375
vt 0.46875 0.484375
vt 0.03125 0.375
vt 0.09375 0.40625
vt 0.0625 0.46875
vt 0.140625 0.375
vt 0.203125 0.40625
vt 0.171875 0.46875
vt 0.34375 0.4660703125
vt 0.3125 0.4660703125
vt 0.3125 0.421875
vt 0.53125 0.46875
vt 0.5 0.46875
vt 0.5 0.42455624999999997
vt 0.40625 0.375
vt 0.4375 0.375
vt 0.4375 0.40625
vt 0.453125 0.375
vt 0.484375 0.375
vt 0.484375 0.40625
vt 0.546875 0.421875
vt 0.578125 0.421875
vt 0.578125 0.46606875000000003
vt 0.53125 0.40625
vt 0.5 0.40625
vt 0.5 0.375
vt 0.359375 0.4245546875
vt 0.390625 0.4245546875
vt 0.390625 0.46875
vt 0.59375 0.4375
vt 0.625 0.4375
vt 0.625 0.46875
vt 0.34375 0.40356875000000003
vt 0.3125 0.40356875000000003
vt 0.3125 0.359375
vt 0.4375 0.46875
vt 0.40625 0.46875
vt 0.40625 0.4245546875
vt 0.546875 0.375
vt 0.578125 0.375
vt 0.578125 0.40625
vt 0.59375 0.390625
vt 0.625 0.390625
vt 0.625 0.421875
vt 0.453125 0.421875
vt 0.484375 0.421875
vt 0.484375 0.4660703125
vt 0.625 0.375
vt 0.59375 0.375
vt 0.59375 0.34375
vt 0.359375 0.36205624999999997
vt 0.390625 0.36205624999999997
vt 0.390625 0.40625
vt 0 0.328125
vt 0.03125 0.328125
vt 0.03125 0.359375
vt 0.25 0.46875
vt 0.21875 0.46875
vt 0.21875 0.375
vt 0.265625 0.46875
vt 0.265625 0.375
vt 0.296875 0.375
vt 0.25 1
vt 0 1
vt 0.25 0.75
vt 0.453125 1
vt 0.265625 1
vt 0.453125 0.75
vt 0.25 0.734375
vt 0 0.734375
vt 0.25 0.484375
vt 0.453125 0.734375
vt 0.265625 0.734375
vt 0.453125 0.484375
vt 0.46875 1
vt 0.46875 0.75
vt 0.65625 1
vt 0.65625 0.484375
vt 0.65625 0.734375
vt 0.46875 0.484375
vt 0.0625 0.46875
vt 0.03125 0.46875
vt 0 0.4375
vt 0 0.4375
vt 0 0.40625
vt 0.03125 0.375
vt 0.03125 0.375
vt 0.0625 0.375
vt 0.09375 0.40625
vt 0.09375 0.40625
vt 0.09375 0.4375
vt 0.0625 0.46875
vt 0.0625 0.46875
vt 0 0.4375
vt 0.03125 0.375
vt 0.171875 0.46875
vt 0.140625 0.46875
vt 0.109375 0.4375
vt 0.109375 0.4375
vt 0.109375 0.40625
vt 0.140625 0.375
vt 0.140625 0.375
vt 0.171875 0.375
vt 0.203125 0.40625
vt 0.203125 0.40625
vt 0.203125 0.4375
vt 0.171875 0.46875
vt 0.171875 0.46875
vt 0.109375 0.4375
vt 0.140625 0.375
vt 0.34375 0.421875
vt 0.34375 0.4660703125
vt 0.3125 0.421875
vt 0.53125 0.42455624999999997
vt 0.53125 0.46875
vt 0.5 0.42455624999999997
vt 0.40625 0.40625
vt 0.40625 0.375
vt 0.4375 0.40625
vt 0.453125 0.40625
vt 0.453125 0.375
vt 0.484375 0.40625
vt 0.546875 0.46606875000000003
vt 0.546875 0.421875
vt 0.578125 0.46606875000000003
vt 0.53125 0.375
vt 0.53125 0.40625
vt 0.5 0.375
vt 0.359375 0.46875
vt 0.359375 0.4245546875
vt 0.390625 0.46875
vt 0.59375 0.46875
vt 0.59375 0.4375
vt 0.625 0.46875
vt 0.34375 0.359375
vt 0.34375 0.40356875000000003
vt 0.3125 0.359375
vt 0.4375 0.4245546875
vt 0.4375 0.46875
vt 0.40625 0.4245546875
vt 0.546875 0.40625
vt 0.546875 0.375
vt 0.578125 0.40625
vt 0.59375 0.421875
vt 0.59375 0.390625
vt 0.625 0.421875
vt 0.453125 0.4660703125
vt 0.453125 0.421875
vt 0.484375 0.4660703125
vt 0.625 0.34375
vt 0.625 0.375
vt 0.59375 0.34375
vt 0.359375 0.40625
vt 0.359375 0.36205624999999997
vt 0.390625 0.40625
vt 0 0.359375
vt 0 0.328125
vt 0.03125 0.359375
vt 0.25 0.375
vt 0.25 0.46875
vt 0.21875 0.375
vt 0.296875 0.46875
vt 0.265625 0.46875
vt 0.296875 0.375
vn -2.220446049250313e-16 0 1
vn -1 0 -2.220446049250313e-16
vn 2.220446049250313e-16 0 -1
vn 1 0 2.220446049250313e-16
vn 0 -1 0
vn 0 1 0
vn 2.220446049250313e-16 0 -1
vn 2.220446049250313e-16 0 -1
vn -0.7071067811865476 -0.7071067811865476 -1.5700924586837752e-16
vn -0.7071067811865476 0.7071067811865476 -1.5700924586837752e-16
vn 1 0 2.220446049250313e-16
vn 0 1 0
vn 0.7071067811865476 -0.7071067811865476 1.5700924586837752e-16
vn -1 0 -2.220446049250313e-16
vn 0.7071067811865476 0.7071067811865476 1.5700924586837752e-16
vn 0 -1 0
vn -0.7071067811865476 -0.7071067811865476 -1.5700924586837752e-16
vn -0.7071067811865476 0.7071067811865476 -1.5700924586837752e-16
vn 1 0 2.220446049250313e-16
vn 0 1 0
vn 0.7071067811865476 -0.7071067811865476 1.5700924586837752e-16
vn -1 0 -2.220446049250313e-16
vn 0.7071067811865476 0.7071067811865476 1.5700924586837752e-16
vn 0 -1 0
vn 0 -1 0
vn 0 1 0
vn -2.220446049250313e-16 0 1
vn -1 0 -2.220446049250313e-16
vn 2.220446049250313e-16 0 -1
vn 1 0 2.220446049250313e-16
vn 0 -1 0
vn 0 1 0
vn 2.220446049250313e-16 0 -1
vn 2.220446049250313e-16 0 -1
vn 2.220446049250313e-16 0 -1
vn 2.220446049250313e-16 0 -1
vn 2.220446049250313e-16 0 -1
vn 2.220446049250313e-16 0 -1
vn 2.220446049250313e-16 0 -1
vn 2.220446049250313e-16 0 -1
vn 2.220446049250313e-16 0 -1
vn 2.220446049250313e-16 0 -1
vn -0.7071067811865476 -0.7071067811865476 -1.5700924586837752e-16
vn -0.7071067811865476 0.7071067811865476 -1.5700924586837752e-16
vn 1 0 2.220446049250313e-16
vn 0 1 0
vn 0.7071067811865476 -0.7071067811865476 1.5700924586837752e-16
vn -1 0 -2.220446049250313e-16
vn 0.7071067811865476 0.7071067811865476 1.5700924586837752e-16
vn 0 -1 0
vn -0.7071067811865476 -0.7071067811865476 -1.5700924586837752e-16
vn -0.7071067811865476 0.7071067811865476 -1.5700924586837752e-16
vn 1 0 2.220446049250313e-16
vn 0 1 0
vn 0.7071067811865476 -0.7071067811865476 1.5700924586837752e-16
vn -1 0 -2.220446049250313e-16
vn 0.7071067811865476 0.7071067811865476 1.5700924586837752e-16
vn 0 -1 0
vn 0 -1 0
vn 0 1 0
usemtl m_d0fa639f-84ac-16ac-9c6e-5d6ae251926d
f 1/1/1 2/2/1 3/3/1
f 4/4/2 5/5/2 2/6/2
f 6/7/3 7/8/3 5/9/3
f 8/10/4 3/11/4 7/12/4
f 2/13/5 5/14/5 7/15/5
f 4/16/6 1/17/6 8/18/6
f 9/19/7 10/20/7 11/21/7
f 12/22/8 13/23/8 14/24/8
f 15/25/9 13/26/9 16/27/9
f 17/28/10 14/29/10 18/30/10
f 19/31/11 20/32/11 21/33/11
f 22/34/12 23/35/12 14/36/12
f 24/37/13 12/38/13 20/39/13
f 25/40/14 18/41/14 13/42/14
f 26/43/15 21/44/15 23/45/15
f 27/46/16 16/47/16 12/48/16
f 28/49/17 10/50/17 29/51/17
f 30/52/18 11/53/18 31/54/18
f 32/55/19 33/56/19 34/57/19
f 35/58/20 36/59/20 11/60/20
f 37/61/21 9/62/21 33/63/21
f 38/64/22 31/65/22 10/66/22
f 39/67/23 34/68/23 36/69/23
f 40/70/24 29/71/24 9/72/24
f 14/73/25 17/74/25 35/75/25
f 41/76/26 42/77/26 43/78/26
f 8/79/27 1/80/27 3/81/27
f 1/82/28 4/83/28 2/84/28
f 4/85/29 6/86/29 5/87/29
f 6/88/30 8/89/30 7/90/30
f 3/91/31 2/92/31 7/93/31
f 6/94/32 4/95/32 8/96/32
f 11/97/33 36/98/33 34/99/33
f 34/100/34 33/101/34 9/102/34
f 9/103/35 29/104/35 10/105/35
f 10/106/36 31/107/36 11/108/36
f 11/109/37 34/110/37 9/111/37
f 14/112/38 23/113/38 21/114/38
f 21/115/39 20/116/39 12/117/39
f 12/118/40 16/119/40 13/120/40
f 13/121/41 18/122/41 14/123/41
f 14/124/42 21/125/42 12/126/42
f 27/127/43 15/128/43 16/129/43
f 25/130/44 17/131/44 18/132/44
f 26/133/45 19/134/45 21/135/45
f 17/136/46 22/137/46 14/138/46
f 19/139/47 24/140/47 20/141/47
f 15/142/48 25/143/48 13/144/48
f 22/145/49 26/146/49 23/147/49
f 24/148/50 27/149/50 12/150/50
f 40/151/51 28/152/51 29/153/51
f 38/154/52 30/155/52 31/156/52
f 39/157/53 32/158/53 34/159/53
f 30/160/54 35/161/54 11/162/54
f 32/163/55 37/164/55 33/165/55
f 28/166/56 38/167/56 10/168/56
f 35/169/57 39/170/57 36/171/57
f 37/172/58 40/173/58 9/174/58
f 36/175/59 14/176/59 35/177/59
f 44/178/60 41/179/60 43/180/60